<svg width="40" height="40" viewBox="0 0 40 40" fill="none" xmlns="http://www.w3.org/2000/svg">
<circle cx="20" cy="20" r="20" fill="#EB9B00" fill-opacity="0.1"/>
<path d="M13.269 17.75C13.2678 16.8605 13.4426 15.9796 13.7834 15.158C14.1242 14.3363 14.6243 13.5903 15.2548 12.9629C15.8853 12.3354 16.6337 11.839 17.4569 11.5021C18.2802 11.1652 19.1619 10.9947 20.0514 11.0002C23.763 11.0278 26.7317 14.1128 26.7317 17.8347V18.5C26.7317 21.8577 27.4342 23.8062 28.0529 24.8711C28.1196 24.9849 28.1551 25.1142 28.1558 25.2461C28.1565 25.378 28.1224 25.5077 28.0569 25.6222C27.9915 25.7367 27.8971 25.8319 27.7831 25.8982C27.6691 25.9646 27.5397 25.9997 27.4078 26H12.5922C12.4603 25.9997 12.3309 25.9645 12.2169 25.8982C12.1029 25.8318 12.0084 25.7366 11.943 25.6221C11.8776 25.5076 11.8435 25.3778 11.8442 25.2459C11.845 25.1141 11.8805 24.9847 11.9472 24.8709C12.5662 23.806 13.269 21.8575 13.269 18.5L13.269 17.75Z" stroke="#EB9B00" stroke-width="1.5" stroke-linecap="round" stroke-linejoin="round"/>
<path d="M17 26V26.75C17 27.5456 17.3161 28.3087 17.8787 28.8713C18.4413 29.4339 19.2044 29.75 20 29.75C20.7956 29.75 21.5587 29.4339 22.1213 28.8713C22.6839 28.3087 23 27.5456 23 26.75V26" stroke="#EB9B00" stroke-width="1.5" stroke-linecap="round" stroke-linejoin="round"/>
<circle cx="25" cy="15" r="7" fill="#22BA68"/>
<path d="M25.5231 19.0994C25.0212 19.0994 24.5737 19.0071 24.1808 18.8224C23.7901 18.6378 23.48 18.3833 23.2504 18.0589C23.0207 17.7346 22.9012 17.3629 22.8917 16.9439H24.3832C24.3997 17.2256 24.5181 17.4541 24.7383 17.6293C24.9585 17.8045 25.2201 17.892 25.5231 17.892C25.7646 17.892 25.9776 17.8388 26.1623 17.7322C26.3493 17.6233 26.4949 17.473 26.5991 17.2812C26.7056 17.0871 26.7589 16.8646 26.7589 16.6136C26.7589 16.358 26.7044 16.133 26.5955 15.9389C26.489 15.7448 26.341 15.5933 26.1516 15.4844C25.9622 15.3755 25.7456 15.3198 25.5018 15.3175C25.2887 15.3175 25.0816 15.3613 24.8803 15.4489C24.6815 15.5365 24.5264 15.656 24.4151 15.8075L23.0479 15.5625L23.3924 11.7273H27.8384V12.9844H24.6602L24.4719 14.8061H24.5146C24.6424 14.6262 24.8353 14.477 25.0934 14.3587C25.3514 14.2403 25.6403 14.1811 25.9599 14.1811C26.3978 14.1811 26.7885 14.2841 27.1317 14.4901C27.475 14.696 27.7461 14.9789 27.945 15.3388C28.1438 15.6963 28.2421 16.1082 28.2397 16.5746C28.2421 17.0646 28.1284 17.5002 27.8988 17.8814C27.6715 18.2602 27.3531 18.5585 26.9435 18.7763C26.5363 18.9917 26.0629 19.0994 25.5231 19.0994Z" fill="white"/>
</svg>
