<svg width="16" height="16" viewBox="0 0 16 16" fill="none" xmlns="http://www.w3.org/2000/svg">
<path d="M12.9619 6.30865C12.9241 6.21729 12.86 6.1392 12.7778 6.08426C12.6956 6.02932 12.5989 6 12.5 6H2.5C2.40111 6 2.30444 6.02932 2.22221 6.08427C2.13999 6.13921 2.0759 6.2173 2.03806 6.30866C2.00022 6.40003 1.99031 6.50056 2.00961 6.59755C2.0289 6.69455 2.07653 6.78364 2.14646 6.85356L7.14646 11.8535C7.19288 11.9 7.248 11.9368 7.30866 11.9619C7.36932 11.9871 7.43434 12 7.5 12C7.56566 12 7.63068 11.9871 7.69134 11.9619C7.752 11.9368 7.80712 11.9 7.85355 11.8535L12.8535 6.85356C12.9235 6.78364 12.9711 6.69454 12.9904 6.59755C13.0097 6.50056 12.9998 6.40002 12.9619 6.30865Z" fill="#333333"/>
</svg>
