<svg width="24" height="24" viewBox="0 0 24 24" fill="none" xmlns="http://www.w3.org/2000/svg">
<path d="M18.75 10.5V18.8333C18.75 19.0101 18.6798 19.1797 18.5547 19.3047C18.4297 19.4298 18.2601 19.5 18.0833 19.5H3.75C3.55109 19.5 3.36032 19.421 3.21967 19.2803C3.07902 19.1397 3 18.9489 3 18.75V8.25C3 8.05109 3.07902 7.86032 3.21967 7.71967C3.36032 7.57902 3.55109 7.5 3.75 7.5H8C8.16228 7.5 8.32018 7.55263 8.45 7.65L11.05 9.6C11.1798 9.69737 11.3377 9.75 11.5 9.75H18C18.1989 9.75 18.3897 9.82902 18.5303 9.96967C18.671 10.1103 18.75 10.3011 18.75 10.5Z" stroke="#0050EB" stroke-linecap="round" stroke-linejoin="round"/>
<path d="M6 7.5V5.25C6 5.05109 6.07902 4.86032 6.21967 4.71967C6.36032 4.57902 6.55109 4.5 6.75 4.5H11C11.1623 4.5 11.3202 4.55263 11.45 4.65L14.05 6.6C14.1798 6.69737 14.3377 6.75 14.5 6.75H21C21.1989 6.75 21.3897 6.82902 21.5303 6.96967C21.671 7.11032 21.75 7.30109 21.75 7.5V15.8333C21.75 15.9209 21.7328 16.0076 21.6993 16.0885C21.6657 16.1693 21.6166 16.2428 21.5547 16.3047C21.4928 16.3666 21.4193 16.4157 21.3385 16.4493C21.2576 16.4828 21.1709 16.5 21.0833 16.5H18.75" stroke="#0050EB" stroke-linecap="round" stroke-linejoin="round"/>
<path d="M6 14.25H10.5" stroke="#0050EB" stroke-linecap="round" stroke-linejoin="round"/>
<path d="M8.25 12V16.5" stroke="#0050EB" stroke-linecap="round" stroke-linejoin="round"/>
</svg>
