<svg width="25" height="24" viewBox="0 0 25 24" fill="none" xmlns="http://www.w3.org/2000/svg">
<path d="M12.5 16.5C14.9853 16.5 17 14.4853 17 12C17 9.51472 14.9853 7.5 12.5 7.5C10.0147 7.5 8 9.51472 8 12C8 14.4853 10.0147 16.5 12.5 16.5Z" stroke="#333333" stroke-linecap="round" stroke-linejoin="round"/>
<path d="M17.7218 6.10313C17.9593 6.32188 18.1843 6.54688 18.3968 6.77813L20.9562 7.14375C21.3732 7.86798 21.6946 8.64318 21.9124 9.45L20.3562 11.5219C20.3562 11.5219 20.3843 12.1594 20.3562 12.4781L21.9124 14.55C21.6956 15.3572 21.3741 16.1325 20.9562 16.8563L18.3968 17.2219C18.3968 17.2219 17.9562 17.6813 17.7218 17.8969L17.3562 20.4563C16.6319 20.8733 15.8567 21.1947 15.0499 21.4125L12.978 19.8563C12.6599 19.8844 12.3399 19.8844 12.0218 19.8563L9.9499 21.4125C9.14274 21.1957 8.3674 20.8742 7.64365 20.4563L7.27803 17.8969C7.04678 17.6781 6.82178 17.4531 6.60303 17.2219L4.04365 16.8563C3.62664 16.132 3.30521 15.3568 3.0874 14.55L4.64365 12.4781C4.64365 12.4781 4.61553 11.8406 4.64365 11.5219L3.0874 9.45C3.3042 8.64284 3.62568 7.8675 4.04365 7.14375L6.60303 6.77813C6.82178 6.54688 7.04678 6.32188 7.27803 6.10313L7.64365 3.54375C8.36788 3.12673 9.14308 2.80531 9.9499 2.5875L12.0218 4.14375C12.3399 4.11562 12.6599 4.11562 12.978 4.14375L15.0499 2.5875C15.8571 2.8043 16.6324 3.12578 17.3562 3.54375L17.7218 6.10313Z" stroke="#333333" stroke-linecap="round" stroke-linejoin="round"/>
</svg>
