<svg width="24" height="24" viewBox="0 0 24 24" fill="none" xmlns="http://www.w3.org/2000/svg">
<path d="M12.5343 19.8656L20.128 12.2719C21.9936 10.3969 22.2655 7.33125 20.503 5.37187C20.061 4.8781 19.5229 4.47964 18.9217 4.20083C18.3205 3.92202 17.6688 3.76872 17.0063 3.75029C16.3439 3.73186 15.6846 3.8487 15.0688 4.09366C14.453 4.33862 13.8937 4.70656 13.4249 5.175L11.9999 6.60937L10.7718 5.37187C8.89676 3.50625 5.83114 3.23437 3.87176 4.99687C3.37799 5.43889 2.97952 5.97694 2.70071 6.57816C2.4219 7.17937 2.2686 7.83111 2.25018 8.49357C2.23175 9.15603 2.34859 9.81529 2.59355 10.4311C2.83851 11.0468 3.20645 11.6062 3.67489 12.075L11.4655 19.8656C11.6077 20.0065 11.7997 20.0855 11.9999 20.0855C12.2 20.0855 12.3921 20.0065 12.5343 19.8656Z" fill="#FF0000" stroke="#FF0000" stroke-linecap="round" stroke-linejoin="round"/>
</svg>
