<svg width="24" height="24" viewBox="0 0 24 24" fill="none" xmlns="http://www.w3.org/2000/svg">
<path d="M12.5345 19.8656L20.1283 12.2719C21.9939 10.3969 22.2658 7.33126 20.5033 5.37188C20.0612 4.87811 19.5232 4.47965 18.922 4.20084C18.3208 3.92203 17.669 3.76872 17.0066 3.7503C16.3441 3.73187 15.6848 3.84871 15.0691 4.09367C14.4533 4.33863 13.8939 4.70657 13.4251 5.17501L12.0001 6.60938L10.772 5.37188C8.897 3.50626 5.83138 3.23438 3.872 4.99688C3.37823 5.4389 2.97977 5.97695 2.70096 6.57816C2.42215 7.17938 2.26885 7.83112 2.25042 8.49358C2.23199 9.15604 2.34883 9.8153 2.59379 10.4311C2.83875 11.0469 3.20669 11.6062 3.67513 12.075L11.4658 19.8656C11.6079 20.0065 11.8 20.0855 12.0001 20.0855C12.2003 20.0855 12.3923 20.0065 12.5345 19.8656V19.8656Z" stroke="#FF0000" stroke-linecap="round" stroke-linejoin="round"/>
</svg>
