<svg width="22" height="18" viewBox="0 0 22 18" fill="none" xmlns="http://www.w3.org/2000/svg">
<path d="M11.5343 16.8656L19.128 9.27187C20.9936 7.39687 21.2655 4.33125 19.503 2.37187C19.061 1.8781 18.5229 1.47964 17.9217 1.20083C17.3205 0.922018 16.6688 0.768716 16.0063 0.75029C15.3439 0.731864 14.6846 0.848701 14.0688 1.09366C13.453 1.33862 12.8937 1.70656 12.4249 2.175L10.9999 3.60937L9.77176 2.37187C7.89676 0.50625 4.83114 0.234374 2.87176 1.99687C2.37799 2.43889 1.97952 2.97694 1.70071 3.57816C1.4219 4.17937 1.2686 4.83111 1.25018 5.49357C1.23175 6.15603 1.34859 6.81529 1.59355 7.43107C1.83851 8.04685 2.20645 8.60622 2.67489 9.075L10.4655 16.8656C10.6077 17.0065 10.7997 17.0855 10.9999 17.0855C11.2 17.0855 11.3921 17.0065 11.5343 16.8656Z" fill="#333333" fill-opacity="0.15" stroke="white" stroke-linecap="round" stroke-linejoin="round"/>
</svg>
