<svg width="25" height="24" viewBox="0 0 25 24" fill="none" xmlns="http://www.w3.org/2000/svg">
<path d="M13.0343 19.8656L20.628 12.2719C22.4936 10.3969 22.7655 7.33126 21.003 5.37188C20.561 4.87811 20.0229 4.47965 19.4217 4.20084C18.8205 3.92203 18.1688 3.76872 17.5063 3.7503C16.8439 3.73187 16.1846 3.84871 15.5688 4.09367C14.953 4.33863 14.3937 4.70657 13.9249 5.17501L12.4999 6.60938L11.2718 5.37188C9.39676 3.50626 6.33114 3.23438 4.37176 4.99688C3.87799 5.4389 3.47952 5.97695 3.20071 6.57816C2.9219 7.17938 2.7686 7.83112 2.75018 8.49358C2.73175 9.15604 2.84859 9.8153 3.09355 10.4311C3.33851 11.0469 3.70645 11.6062 4.17489 12.075L11.9655 19.8656C12.1077 20.0065 12.2997 20.0855 12.4999 20.0855C12.7 20.0855 12.8921 20.0065 13.0343 19.8656V19.8656Z" stroke="#333333" stroke-opacity="0.6" stroke-linecap="round" stroke-linejoin="round"/>
</svg>
