<svg width="25" height="24" viewBox="0 0 25 24" fill="none" xmlns="http://www.w3.org/2000/svg">
<path d="M14.75 19.5V15C14.75 14.8011 14.671 14.6103 14.5303 14.4697C14.3897 14.329 14.1989 14.25 14 14.25H11C10.8011 14.25 10.6103 14.329 10.4697 14.4697C10.329 14.6103 10.25 14.8011 10.25 15V19.5C10.25 19.6989 10.171 19.8897 10.0303 20.0303C9.88968 20.171 9.69891 20.25 9.5 20.25H5C4.80109 20.25 4.61032 20.171 4.46967 20.0303C4.32902 19.8897 4.25 19.6989 4.25 19.5V10.8281C4.25168 10.7243 4.27411 10.6219 4.31597 10.5269C4.35783 10.4319 4.41828 10.3463 4.49375 10.275L11.9937 3.45936C12.132 3.33287 12.3126 3.26273 12.5 3.26273C12.6874 3.26273 12.868 3.33287 13.0062 3.45936L20.5062 10.275C20.5817 10.3463 20.6422 10.4319 20.684 10.5269C20.7259 10.6219 20.7483 10.7243 20.75 10.8281V19.5C20.75 19.6989 20.671 19.8897 20.5303 20.0303C20.3897 20.171 20.1989 20.25 20 20.25H15.5C15.3011 20.25 15.1103 20.171 14.9697 20.0303C14.829 19.8897 14.75 19.6989 14.75 19.5Z" stroke="#333333" stroke-opacity="0.6" stroke-linecap="round" stroke-linejoin="round"/>
</svg>
