<svg width="40" height="40" viewBox="0 0 40 40" fill="none" xmlns="http://www.w3.org/2000/svg">
<circle cx="20" cy="20" r="20" fill="#0050EB" fill-opacity="0.1"/>
<path d="M26.75 18.5V26.8333C26.75 27.0101 26.6798 27.1797 26.5547 27.3047C26.4297 27.4298 26.2601 27.5 26.0833 27.5H11.75C11.5511 27.5 11.3603 27.421 11.2197 27.2803C11.079 27.1397 11 26.9489 11 26.75V16.25C11 16.0511 11.079 15.8603 11.2197 15.7197C11.3603 15.579 11.5511 15.5 11.75 15.5H16C16.1623 15.5 16.3202 15.5526 16.45 15.65L19.05 17.6C19.1798 17.6974 19.3377 17.75 19.5 17.75H26C26.1989 17.75 26.3897 17.829 26.5303 17.9697C26.671 18.1103 26.75 18.3011 26.75 18.5Z" stroke="#0050EB" stroke-linecap="round" stroke-linejoin="round"/>
<path d="M14 15.5V13.25C14 13.0511 14.079 12.8603 14.2197 12.7197C14.3603 12.579 14.5511 12.5 14.75 12.5H19C19.1623 12.5 19.3202 12.5526 19.45 12.65L22.05 14.6C22.1798 14.6974 22.3377 14.75 22.5 14.75H29C29.1989 14.75 29.3897 14.829 29.5303 14.9697C29.671 15.1103 29.75 15.3011 29.75 15.5V23.8333C29.75 23.9209 29.7328 24.0076 29.6993 24.0885C29.6657 24.1693 29.6166 24.2428 29.5547 24.3047C29.4928 24.3666 29.4193 24.4157 29.3385 24.4493C29.2576 24.4828 29.1709 24.5 29.0833 24.5H26.75" stroke="#0050EB" stroke-linecap="round" stroke-linejoin="round"/>
<path d="M14 22.25H18.5" stroke="#0050EB" stroke-linecap="round" stroke-linejoin="round"/>
<path d="M16.25 20V24.5" stroke="#0050EB" stroke-linecap="round" stroke-linejoin="round"/>
</svg>
