<svg width="17" height="22" viewBox="0 0 17 22" fill="none" xmlns="http://www.w3.org/2000/svg">
<path d="M8.5 12.0831C11.7151 12.0831 14.294 9.50433 14.294 6.29105H13.294C13.294 8.95183 11.1631 11.0831 8.5 11.0831V12.0831ZM2.70601 6.29105C2.70601 9.5044 5.28593 12.0831 8.5 12.0831V11.0831C5.83787 11.0831 3.70601 8.95177 3.70601 6.29105H2.70601ZM8.5 0.5C5.28605 0.5 2.70601 3.07759 2.70601 6.29105H3.70601C3.70601 3.63046 5.83774 1.5 8.5 1.5V0.5ZM14.294 6.29105C14.294 3.07765 11.715 0.5 8.5 0.5V1.5C11.1632 1.5 13.294 3.6304 13.294 6.29105H14.294ZM0 17.575C0 18.3798 0.27559 19.0544 0.771406 19.5954C1.2569 20.1252 1.93235 20.5047 2.70648 20.7788C4.24807 21.3247 6.31903 21.5 8.5 21.5V20.5C6.34334 20.5 4.4143 20.3227 3.0403 19.8362C2.35663 19.5941 1.84539 19.2873 1.50864 18.9198C1.18221 18.5636 1 18.1302 1 17.575H0ZM8.5 13.6739C6.33143 13.6739 4.26102 13.8428 2.71716 14.382C1.94197 14.6527 1.26404 15.0287 0.776209 15.5561C0.277731 16.095 0 16.7689 0 17.575H1C1 17.0205 1.18294 16.589 1.5103 16.2351C1.84831 15.8697 2.36139 15.5655 3.04687 15.3261C4.42436 14.845 6.35395 14.6739 8.5 14.6739V13.6739ZM17 17.599C17 16.7942 16.7245 16.1195 16.2288 15.5785C15.7433 15.0487 15.068 14.6693 14.2939 14.3951C12.7524 13.8492 10.6815 13.6739 8.5 13.6739V14.6739C10.6572 14.6739 12.5862 14.8512 13.9601 15.3377C14.6437 15.5799 15.1548 15.8866 15.4915 16.2541C15.8178 16.6102 16 17.0437 16 17.599H17ZM8.5 21.5C10.6686 21.5 12.739 21.3311 14.2828 20.7919C15.058 20.5212 15.736 20.1452 16.2238 19.6178C16.7223 19.0789 17 18.405 17 17.599H16C16 18.1535 15.8171 18.5849 15.4897 18.9388C15.1517 19.3042 14.6386 19.6084 13.9531 19.8478C12.5756 20.3289 10.646 20.5 8.5 20.5V21.5Z" fill="#333333" fill-opacity="0.6"/>
</svg>
