<svg width="40" height="40" viewBox="0 0 40 40" fill="none" xmlns="http://www.w3.org/2000/svg">
<rect width="40" height="40" rx="20" fill="#0050EB" fill-opacity="0.1"/>
<path d="M15.4812 17.3469H10.9812V12.8469" stroke="#5B75FF" stroke-width="2" stroke-linecap="round" stroke-linejoin="round"/>
<path d="M14.1687 25.8313C15.3222 26.9857 16.7922 27.7721 18.3927 28.091C19.9933 28.4099 21.6524 28.2469 23.1603 27.6227C24.6682 26.9984 25.957 25.941 26.8639 24.5842C27.7707 23.2273 28.2547 21.632 28.2547 20C28.2547 18.368 27.7707 16.7727 26.8639 15.4158C25.957 14.059 24.6682 13.0016 23.1603 12.3774C21.6524 11.7531 19.9933 11.5901 18.3927 11.909C16.7922 12.2279 15.3222 13.0143 14.1687 14.1688L10.9812 17.3469" stroke="#5B75FF" stroke-width="2" stroke-linecap="round" stroke-linejoin="round"/>
</svg>
