<svg width="83" height="28" viewBox="0 0 83 28" fill="none" xmlns="http://www.w3.org/2000/svg">
<rect width="83" height="28" rx="14" fill="#0050EB" fill-opacity="0.1"/>
<path d="M14.2344 11.7891H10.4844V8.03906" stroke="#5B75FF" stroke-width="1.2" stroke-linecap="round" stroke-linejoin="round"/>
<path d="M13.1406 18.8594C14.1019 19.8214 15.3269 20.4768 16.6607 20.7425C17.9944 21.0082 19.3771 20.8724 20.6336 20.3522C21.8902 19.832 22.9642 18.9508 23.7199 17.8201C24.4756 16.6894 24.879 15.36 24.879 14C24.879 12.64 24.4756 11.3106 23.7199 10.1799C22.9642 9.04917 21.8902 8.16798 20.6336 7.64779C19.3771 7.12761 17.9944 6.99179 16.6607 7.25752C15.3269 7.52324 14.1019 8.17858 13.1406 9.14063L10.4844 11.7891" stroke="#5B75FF" stroke-width="1.2" stroke-linecap="round" stroke-linejoin="round"/>
<path d="M42.5376 11.6172C42.4912 11.183 42.2957 10.8449 41.951 10.603C41.6096 10.361 41.1655 10.2401 40.6186 10.2401C40.2341 10.2401 39.9044 10.2981 39.6293 10.4141C39.3542 10.5301 39.1437 10.6875 38.9979 10.8864C38.852 11.0852 38.7775 11.3123 38.7741 11.5675C38.7741 11.7796 38.8222 11.9635 38.9183 12.1193C39.0178 12.2751 39.152 12.4077 39.321 12.517C39.4901 12.6231 39.6773 12.7126 39.8828 12.7855C40.0883 12.8584 40.2955 12.9197 40.5043 12.9695L41.4588 13.2081C41.8433 13.2976 42.2128 13.4186 42.5675 13.571C42.9254 13.7235 43.2453 13.9157 43.527 14.1477C43.812 14.3797 44.0374 14.6598 44.2031 14.9879C44.3688 15.3161 44.4517 15.7005 44.4517 16.1413C44.4517 16.7379 44.2992 17.2633 43.9943 17.7173C43.6894 18.1681 43.2486 18.5211 42.6719 18.7763C42.0985 19.0282 41.4041 19.1541 40.5888 19.1541C39.7966 19.1541 39.1089 19.0315 38.5256 18.7862C37.9455 18.541 37.4915 18.183 37.1634 17.7124C36.8385 17.2417 36.6629 16.6683 36.6364 15.9922H38.451C38.4775 16.3468 38.5869 16.6418 38.7791 16.8771C38.9714 17.1125 39.2216 17.2881 39.5298 17.4041C39.8414 17.5201 40.1894 17.5781 40.5739 17.5781C40.9749 17.5781 41.3262 17.5185 41.6278 17.3991C41.9328 17.2765 42.1714 17.1075 42.3438 16.892C42.5161 16.6733 42.6039 16.4181 42.6072 16.1264C42.6039 15.8613 42.526 15.6425 42.3736 15.4702C42.2211 15.2945 42.0073 15.1487 41.7322 15.0327C41.4605 14.9134 41.1423 14.8073 40.7777 14.7145L39.6193 14.4162C38.7808 14.2008 38.1179 13.8743 37.6307 13.4368C37.1468 12.996 36.9048 12.411 36.9048 11.6818C36.9048 11.0819 37.0672 10.5566 37.392 10.1058C37.7202 9.65507 38.166 9.3054 38.7294 9.05682C39.2929 8.80492 39.9309 8.67898 40.6435 8.67898C41.366 8.67898 41.9991 8.80492 42.5426 9.05682C43.0895 9.3054 43.5187 9.65175 43.8303 10.0959C44.1418 10.5367 44.3026 11.0438 44.3125 11.6172H42.5376ZM46.0165 19V11.3636H47.8162V19H46.0165ZM53.5348 11.3636V12.7557H49.0206V11.3636H53.5348ZM50.1491 19V10.6428C50.1491 10.129 50.2552 9.70147 50.4673 9.36008C50.6828 9.0187 50.9711 8.76349 51.3324 8.59446C51.6937 8.42543 52.0947 8.34091 52.5355 8.34091C52.8471 8.34091 53.1238 8.36577 53.3658 8.41548C53.6077 8.4652 53.7867 8.50994 53.9027 8.54972L53.5447 9.94176C53.4685 9.91856 53.3724 9.89536 53.2564 9.87216C53.1404 9.84564 53.0111 9.83239 52.8686 9.83239C52.5339 9.83239 52.2969 9.91359 52.1577 10.076C52.0218 10.2351 51.9538 10.4638 51.9538 10.7621V19H50.1491ZM54.9442 19V11.3636H56.744V19H54.9442ZM58.5946 19V11.3636H60.3397V12.6364H60.4192C60.5584 12.1955 60.7971 11.8558 61.1351 11.6172C61.4765 11.3752 61.8659 11.2543 62.3034 11.2543C62.4029 11.2543 62.5139 11.2592 62.6365 11.2692C62.7625 11.2758 62.8669 11.2874 62.9498 11.304V12.9595C62.8735 12.933 62.7525 12.9098 62.5868 12.8899C62.4244 12.8667 62.267 12.8551 62.1145 12.8551C61.7864 12.8551 61.4914 12.9264 61.2296 13.0689C60.9711 13.2081 60.7672 13.402 60.6181 13.6506C60.4689 13.8991 60.3944 14.1858 60.3944 14.5107V19H58.5946ZM65.9451 8.81818V19H64.1454V8.81818H65.9451ZM69.9933 19.1541C69.5094 19.1541 69.0735 19.0679 68.6857 18.8956C68.3013 18.7199 67.9963 18.4614 67.771 18.12C67.5489 17.7786 67.4379 17.3577 67.4379 16.8572C67.4379 16.4264 67.5174 16.0701 67.6765 15.7884C67.8356 15.5066 68.0527 15.2812 68.3278 15.1122C68.6029 14.9432 68.9128 14.8156 69.2575 14.7294C69.6055 14.6399 69.9651 14.5753 70.3363 14.5355C70.7837 14.4891 71.1467 14.4477 71.4251 14.4112C71.7035 14.3714 71.9057 14.3118 72.0316 14.2322C72.1609 14.1494 72.2255 14.0218 72.2255 13.8494V13.8196C72.2255 13.4451 72.1145 13.1551 71.8924 12.9496C71.6703 12.7441 71.3505 12.6413 70.9329 12.6413C70.4921 12.6413 70.1424 12.7375 69.8839 12.9297C69.6287 13.1219 69.4563 13.349 69.3668 13.6108L67.6864 13.3722C67.819 12.9081 68.0378 12.5204 68.3427 12.2088C68.6476 11.8939 69.0205 11.6586 69.4613 11.5028C69.9021 11.3438 70.3893 11.2642 70.9229 11.2642C71.2908 11.2642 71.6571 11.3073 72.0217 11.3935C72.3862 11.4796 72.7193 11.6222 73.021 11.821C73.3226 12.0166 73.5645 12.2834 73.7468 12.6214C73.9324 12.9595 74.0252 13.3821 74.0252 13.8892V19H72.2951V17.951H72.2354C72.1261 18.1631 71.9719 18.362 71.7731 18.5476C71.5775 18.7299 71.3306 18.8774 71.0323 18.9901C70.7373 19.0994 70.391 19.1541 69.9933 19.1541ZM70.4606 17.8317C70.8219 17.8317 71.1351 17.7604 71.4002 17.6179C71.6654 17.4721 71.8692 17.2798 72.0117 17.0412C72.1576 16.8026 72.2305 16.5424 72.2305 16.2607V15.3608C72.1741 15.4072 72.078 15.4503 71.9421 15.4901C71.8095 15.5298 71.6604 15.5646 71.4947 15.5945C71.329 15.6243 71.1649 15.6508 71.0025 15.674C70.8401 15.6972 70.6992 15.7171 70.5799 15.7337C70.3114 15.7701 70.0711 15.8298 69.859 15.9126C69.6469 15.9955 69.4795 16.1115 69.3569 16.2607C69.2343 16.4065 69.1729 16.5954 69.1729 16.8274C69.1729 17.1589 69.2939 17.4091 69.5359 17.5781C69.7778 17.7472 70.0861 17.8317 70.4606 17.8317Z" fill="#5B75FF"/>
</svg>
