<svg width="256" height="256" viewBox="0 0 256 256" fill="none" xmlns="http://www.w3.org/2000/svg">
<path d="M73.4506 89.0643C70.0538 89.0003 65.7042 91.9846 65.6094 92.1742C65.5146 92.3638 61.895 96.5879 61.895 96.5879C62.712 97.5238 63.3543 98.5988 63.7913 99.7618C64.4574 101.604 64.5214 103.253 64.2986 106.207C64.0758 109.16 65.7682 110.459 65.7682 110.459L69.6414 114.745V114.14C69.6414 114.14 69.4826 106.681 70.2126 104.173C70.9427 101.665 71.2295 104.616 71.8008 107.695C72.372 110.775 71.4192 116.489 71.4192 116.489L72.436 117.675L73.8322 120.282C73.8322 120.282 73.1021 120.82 71.8008 120.123C70.4995 119.426 67.5792 115.62 67.5792 115.62C66.5552 116.174 65.4815 116.631 64.372 116.985C62.4995 117.57 60.2073 118.519 60.2073 118.519C60.2073 118.519 61.127 120.55 61.2526 120.773C61.3783 120.996 64.5356 128.069 68.8544 130.686C68.1631 130.351 67.5092 129.944 66.9036 129.472C64.3649 127.441 59.7617 119.346 58.8443 116.741C57.927 114.136 58.2138 112.356 58.2138 112.356C58.2138 112.356 55.1963 109.625 54.5611 107.615C53.9258 105.605 55.4832 103.391 56.5925 102.502C56.7848 102.358 56.93 102.16 57.0097 101.933C56.7878 101.431 56.637 100.9 56.5617 100.357L56.4977 100.281L56.5309 100.134C56.442 99.365 56.4958 98.5864 56.6897 97.837C57.2917 95.5188 57.7682 94.6299 57.7682 94.6299C57.7682 94.6299 54.8479 95.296 51.9916 92.6293C51.9916 92.6293 47.6112 93.3286 46.2458 95.9004C44.8805 98.4723 43.9916 108.186 43.9916 108.186L43.482 116.663L40.5783 111.448C40.775 111.829 41.4126 113.425 39.4192 115.141C37.1341 117.108 33.2301 116.949 33.4197 117.395C33.6094 117.841 37.5157 126.568 40.7845 128.251C44.0532 129.934 47.1655 129.553 48.6565 127.934C50.1475 126.315 51.9916 119.163 51.9916 119.163C51.9916 119.163 49.6426 112.495 49.5786 112.306C49.5146 112.116 48.4977 107.449 48.4977 107.449C49.9056 108.295 50.9387 109.645 51.3872 111.225C52.1172 113.861 55.6728 121.417 57.7682 124.499C59.8636 127.58 63.8648 132.814 63.8648 132.814L61.2574 131.641C61.2574 131.641 60.3377 134.248 59.5436 135.355C58.7495 136.462 61.1554 140.326 65.1969 140.302C69.2384 140.279 70.7839 140.968 75.2615 139.117C79.7392 137.266 83.8968 133.902 84.9113 133.191C85.9258 132.48 87.8956 128.811 87.8956 128.811L84.3851 115.572L82.6263 107.615L82.2257 110.18C82.2257 107.335 82.2446 104.789 82.2446 104.789C82.2446 104.789 80.436 94.6631 79.2935 91.9324C78.151 89.2018 76.8473 89.1259 73.4506 89.0643ZM76.6766 130.889C75.7535 131.548 74.6409 131.887 73.5075 131.857C74.6217 131.769 75.7034 131.439 76.6766 130.889Z" fill="#AAC3DA"/>
<path d="M54.1699 62.5541C53.7788 62.5304 53.6176 63.3316 53.0061 65.3179C52.1172 68.2074 54.4662 72.5879 54.4662 72.5879L56.3625 69.9046L54.2979 66.7473C54.2979 66.7473 56.7275 68.7787 58.0763 69.2385C59.425 69.6984 59.5364 67.4442 59.5364 67.4442C59.5364 67.4442 61.0132 71.2367 61.8689 72.3484C62.7246 73.4602 66.0384 75.584 66.4129 76.672C66.8869 76.5914 67.7308 76.5535 67.9323 77.3025C68.2191 78.3502 66.4105 81.683 66.1877 83.1739C66.056 84.3507 65.9872 85.5336 65.9815 86.7176L67.5056 86.5564L66.7424 91.0602L74.2659 88.7111C73.9227 88.1089 73.4229 87.6108 72.8194 87.2698C72.2159 86.9288 71.5313 86.7577 70.8384 86.7745C68.3613 86.7745 67.6312 85.568 67.6312 85.568C67.6312 85.568 68.6481 84.013 69.9803 83.4347C71.3124 82.8563 73.0072 83.2 73.0072 83.2C73.0072 83.2 73.3865 81.709 73.2301 80.979C73.0736 80.2489 74.849 78.6916 75.4203 76.9493C75.9915 75.2071 75.3871 73.4886 74.3394 71.7724C73.2917 70.0563 72.3388 69.2646 66.6902 67.1384C61.0416 65.0121 55.9904 64.0901 54.9118 63.0756C54.5752 62.7461 54.3477 62.5778 54.1699 62.5541Z" fill="#9A702D"/>
<path d="M87.5996 130.482C87.5996 130.482 86.7036 136.005 80.2823 139.281C73.8609 142.556 69.452 143.277 65.6903 142.919C61.9285 142.561 60.6627 141.66 60.6627 141.66L57.6002 144.849L53.5706 156.52C53.5706 156.52 49.9794 166.848 48.8583 170.079C47.7371 173.31 47.1066 178.43 47.9599 183.682C48.8132 188.935 51.103 201.865 51.6861 202.046C52.2692 202.226 57.3418 203.437 57.8823 201.012C58.4227 198.587 58.1951 179.328 58.9584 177.128C59.7217 174.929 62.2366 168.642 66.3231 164.871C70.4097 161.1 73.6405 157.554 73.6405 157.554L71.1231 153.647C71.1231 153.647 72.9649 154.359 76.2858 158.542C79.6067 162.726 87.7347 177.218 89.036 179.06C90.3374 180.902 97.2091 186.882 100.127 190.732C103.045 194.581 105.2 197.421 106.321 197.736C107.442 198.052 110.813 196.883 108.971 193.157C107.129 189.431 97.3418 171.615 97.3418 171.615C97.3418 171.615 91.8663 160.258 91.2808 153.927C90.6953 147.596 89.8372 138.833 89.8372 138.833C89.8372 138.833 90.1525 136.273 90.5104 135.016C90.8683 133.76 90.8707 129.538 87.5925 130.482H87.5996Z" fill="#C2DC82"/>
<path d="M192.372 54.3004C192.372 54.3004 187.229 51.6338 184.498 54.2056C181.767 56.7775 178.373 62.6181 177.861 63.4762C177.349 64.3342 176.813 69.3807 177.195 72.5547C177.576 75.7286 178.143 81.0311 176.465 84.6815C174.786 88.3319 171.513 93.8264 170.776 95.7298C170.039 97.6332 168.626 100.504 168.626 100.504L167.514 106.43L168.085 107.795C168.085 107.795 169.294 106.61 170.34 108.968C171.385 111.327 178.816 116.397 178.816 116.397C178.816 116.397 178.88 115.349 178.15 112.588C177.42 109.826 177.133 104.334 178.181 100.736C179.229 97.1378 181.514 93.6581 184.467 91.4039C187.421 89.1496 189.642 85.8477 189.419 84.6412C189.196 83.4347 186.532 77.1484 186.532 77.1484L185.896 76.4184C185.896 76.4184 184.237 78.1961 183.325 77.9757C182.412 77.7553 180.911 76.4184 180.625 75.7523C180.338 75.0862 180.371 72.5476 180.371 72.5476C180.371 72.5476 183.927 72.2939 185.958 71.0234C187.989 69.7529 188.499 64.8604 188.942 61.7221C189.386 58.5837 191.23 57.024 191.23 57.024C191.23 57.024 193.197 59.5959 194.88 60.1339C196.563 60.672 197.388 59.0222 198.277 62.5778C199.166 66.1333 201.292 74.2922 200.595 76.7692C199.898 79.2462 198.912 80.6424 197.547 81.4981C196.181 82.3538 194.15 82.3893 194.15 82.3893C194.15 82.3893 194.944 84.9967 198.308 85.8809C201.671 86.765 205.006 87.3719 205.006 87.3719C205.006 87.3719 206.149 83.9443 205.77 80.9908C205.39 78.0373 201.546 68.6412 201.451 66.4842C201.356 64.3271 201.515 56.4836 200.977 54.675C200.439 52.8664 198.369 52.8332 196.501 53.4353C195.153 53.8379 193.772 54.1241 192.375 54.291L192.372 54.3004Z" fill="#9A702D"/>
<path d="M189.355 126.715C188.915 128.704 188.211 130.626 187.262 132.428C185.704 135.348 178.403 139.698 172.091 138.491C165.779 137.285 163.615 132.11 163.423 126.905C163.231 121.7 164.883 116.999 164.883 116.999C164.883 116.999 174.222 126.618 178.309 128.237C182.395 129.856 184.531 129.636 186.688 127.825C188.845 126.014 189.355 126.715 189.355 126.715Z" fill="#9A702D"/>
<path d="M185.42 93.2859C185.42 93.2859 181.57 96.877 180.219 100.783C178.868 104.69 179.411 108.551 179.508 109.831C179.605 111.111 180.004 113.939 180.004 113.939C180.809 113.853 181.624 113.922 182.405 114.14C183.481 114.498 183.353 114.925 183.353 114.925C183.353 114.925 180.883 115.039 179.714 115.442C178.546 115.845 175.36 114.633 174.462 113.69C173.898 113.108 173.261 112.603 172.565 112.187C172.565 112.187 171.892 114.084 169.332 115.375C166.772 116.667 166.549 116.25 166.549 116.25C166.549 116.25 170.724 120.415 173.748 122.693C176.773 124.971 180.527 127.272 183.064 127.585C185.6 127.898 187.442 127.206 187.643 127.026C187.845 126.846 188.854 125.476 188.854 125.476C188.854 125.476 188.587 119.775 188.587 119.685C188.587 119.595 186.769 111.151 186.745 110.929C186.721 110.706 185.96 106.899 185.96 106.899C185.96 106.899 188.587 108.734 189.698 114.83C190.81 120.927 191.538 126.417 191 128.924C190.462 131.432 187.475 132.798 188.904 134.353C190.334 135.908 193.951 137.465 199.919 137.685C205.888 137.906 209 137.05 209 137.05C209 137.05 212.046 134.917 210.332 132.162C208.619 129.408 210.873 122.444 210.807 122.226C210.74 122.008 212.584 112.702 212.584 112.702C212.584 112.702 207.17 111.644 204.276 109.127C201.382 106.61 200.467 104.332 200.467 104.332L199.348 103.159C199.348 103.159 197.189 102.969 197.793 99.9846C198.398 97.0003 200.237 95.8886 201.951 96.2062C203.665 96.5239 205.189 98.3633 205.189 98.3633L206.905 99.347L211.126 99.539L210.396 97.7612C210.396 97.7612 213.919 97.7304 215.348 98.1096C216.354 98.4019 217.331 98.7842 218.268 99.2521L212.364 99.4441L209.951 99.7286C209.951 99.7286 212.205 101.665 211.539 103.794C210.873 105.922 208.396 109.442 208.396 109.442C208.396 109.442 213.76 112.429 220.205 111.102C226.65 109.774 230.459 107.546 226.745 100.881C223.031 94.2151 219.603 91.8329 216.047 89.9271C212.492 88.0213 210.65 87.6421 207.825 87.5141C205.96 87.4071 204.111 87.1206 202.302 86.6584C202.302 86.6584 206.172 90.1167 204.397 91.3564C202.622 92.5962 199.419 91.5129 199.419 91.5129C199.419 91.5129 199.196 94.6252 197.324 94.9736C195.451 95.3221 190.848 92.8806 190.848 92.8806C190.848 92.8806 189.165 95.8625 188.053 96.3722C186.942 96.8818 185.799 96.8462 185.832 95.424C185.865 94.0018 185.42 93.2907 185.42 93.2907V93.2859Z" fill="#FFAF3C"/>
<path d="M210.252 136.725C210.252 136.725 208.562 140.326 200.69 140.587C192.818 140.847 187.416 138.904 186.975 138.69C186.534 138.477 185.738 138.086 184.531 140.532C183.325 142.978 183.609 147.103 184.021 149.483C184.434 151.863 186.055 155.992 187.833 157.293C189.611 158.594 184.88 157.357 184.183 156.658C183.486 155.959 179.738 165.611 177.356 169.356C174.974 173.101 169.06 179.548 167.389 181.229C165.717 182.91 159.803 189.895 158.561 191.929C157.319 193.963 156.722 196.532 159.483 198.817C162.245 201.102 172.34 206.912 172.34 206.912L179.039 207.623C179.039 207.623 182.246 202.385 183.007 198.481C183.768 194.577 185.515 189.528 185.515 189.528C185.515 189.528 186.34 192.86 185.61 195.337C184.88 197.815 182.528 207.559 182.528 207.559C182.528 207.559 185.259 207.431 187.506 208.194C189.753 208.958 194.776 209.749 196.618 208.353C198.459 206.957 199.981 202.733 200.552 199.019C201.124 195.304 201.918 178.766 201.918 178.766L203.124 167.625L203.537 164.577C203.537 164.577 204.172 172.006 204.077 174.578C203.982 177.15 203.409 187.212 203.409 189.625C203.409 192.038 203.124 198.324 202.837 200.102C202.658 201.205 202.415 202.296 202.107 203.371C202.107 203.371 210.043 201.339 211.726 199.149C213.409 196.959 214.045 194.354 214.203 191.879C214.362 189.404 214.585 179.022 213.345 175.497C212.106 171.973 210.202 158.801 210.077 156.895C209.951 154.989 210.871 141.307 210.871 141.307L211.854 137.785L210.252 136.725Z" fill="#C0A9D1"/>
<path d="M164.181 70.8741C164.181 70.8741 161.1 70.637 157.234 74.093C153.368 77.549 138.69 92.7241 137.524 93.3926C136.358 94.061 131.373 90.3846 131.373 90.3846L126.703 86.4355C126.703 86.4355 125.087 85.357 122.709 87.6468C120.332 89.9366 120.059 91.0127 121.183 92.0913C122.306 93.1698 129.218 102.059 134.336 101.115C139.454 100.172 142.462 97.344 144.574 94.6513C146.686 91.9585 164.181 70.8741 164.181 70.8741Z" fill="#E2FFEF"/>
<path d="M181.834 154.747C181.834 154.747 173.063 168.969 164.817 174.421C156.57 179.873 147.421 182.296 147.421 182.296L143.483 183.31C143.483 183.31 150.341 185.342 147.421 192.706C144.5 200.071 136.178 195.245 136.178 195.245L134.659 189.914C134.659 189.914 131.864 190.929 122.593 190.421C113.323 189.914 103.348 175.953 103.348 175.953L103.159 182.175L108.136 190.62C108.136 190.62 109.248 194.017 109.502 195.539C109.755 197.061 113.375 202.048 113.375 202.048C113.375 202.048 113.946 205.445 115.947 205.445C117.947 205.445 144.695 204.693 144.695 204.693L161.185 205.324L162.399 203.572L155.845 198.004C155.845 198.004 152.429 195.081 156.919 189.833C161.408 184.585 173.215 171.518 173.215 171.518L181.834 154.747Z" fill="#E2FFEF"/>
<path d="M111.737 130.112C111.737 130.112 111.419 136.017 118.659 137.666C125.898 139.316 154.022 138.238 154.657 138.238C155.293 138.238 161.008 143.064 167.419 143.128C173.831 143.192 175.419 138.302 175.419 138.302C175.419 138.302 170.022 139.127 166.412 136.27C162.802 133.414 162.601 130.937 162.601 130.937C162.601 130.937 157.149 130.43 158.061 127.571C158.974 124.712 154.252 124.62 154.252 124.62C154.252 124.62 148.919 124.207 148.089 125.222C147.259 126.236 144.756 132.049 144.756 132.049L141.772 132.079L145.612 124.745C145.612 124.745 140.85 124.333 139.741 125.22C138.631 126.106 136.121 132.236 136.121 132.236L132.343 131.918C132.343 131.918 134.628 126.967 133.962 126.395C133.296 125.824 131.2 125.409 129.486 128.109C127.773 130.809 126.976 132.172 126.976 132.172L124.153 132.395L128.311 126.232C128.311 126.232 122.66 124.961 121.392 126.549C120.123 128.137 117.362 131.089 116.279 130.866C115.195 130.643 113.105 127.564 113.105 127.564C113.105 127.564 111.446 127.976 111.739 130.105L111.737 130.112Z" fill="#E2FFEF"/>
<path d="M162.517 83.3588C161.569 84.6767 160.45 86.1748 159.073 87.8767C152.967 95.4193 146.51 104.846 136.555 104.969C137.216 105.354 137.953 105.592 138.714 105.666C139.982 105.794 140.871 109.286 140.871 109.286C144.112 108.889 147.242 107.853 150.08 106.238C154.714 103.571 155.532 99.5721 155.532 99.5721C155.532 99.5721 165.691 93.2219 162.897 92.0154C160.102 90.8089 161.311 88.0166 161.311 88.0166L162.517 83.3588ZM116.729 91.6551C115.726 92.115 114.849 92.6625 114.721 93.2243C114.404 94.6204 110.341 95.4714 110.341 95.4714L112.436 98.5529C114.532 101.634 116.499 100.449 118.784 101.22C121.069 101.99 122.214 102.108 122.785 104.204C123.357 106.299 121.071 108.902 121.071 108.902C121.071 108.902 130.214 109.473 132.563 106.871C133.796 105.505 134.834 105.05 135.543 104.924C127.903 104.258 119.801 95.3647 116.729 91.6527V91.6551Z" fill="#E2FFEF"/>
<path d="M156.959 41.7778C155.091 41.7778 153.067 41.7778 150.874 41.7778C134.805 41.8015 126.933 42.0267 110.933 42.9274C102.215 43.4181 100.03 43.7618 97.5788 46.2175C94.009 49.7873 95.1136 56.6234 95.0259 57.9911C94.7343 62.5209 94.8102 71.6563 95.1823 76.8024C95.6754 83.6172 95.8935 91.0578 95.9646 102.436C96.1068 128.36 96.6354 147.449 97.6238 162.643C97.7542 164.599 97.9201 167.384 97.996 168.806C98.1358 171.413 98.1358 171.413 97.6997 170.702C97.6855 170.681 97.6665 170.643 97.6499 170.615C98.4416 172.444 99.8472 175.206 99.8472 175.206L99.577 169.043C99.4277 165.653 99.1503 160.905 98.9583 158.495C98.2899 150.047 97.7874 129.704 97.5859 102.91C97.4769 88.4504 97.2564 82.7354 96.4623 73.7541C96.0926 69.5775 96.166 52.9138 96.5595 51.437C97.6617 47.296 100.589 45.056 105.346 44.6886C107.662 44.5084 116.222 44.0841 121.939 43.8637L133.554 43.3896C140.999 43.0839 144.865 43.0696 159.154 43.2972C177.553 43.5864 177.733 43.603 179.316 44.992C180.859 46.3407 181.808 48.9908 181.808 51.9111C181.808 52.6222 181.791 53.8453 181.57 54.2957C182.296 53.6747 183.31 51.7689 183.31 51.7689L183.035 49.9579C182.654 47.4264 182.374 46.573 181.495 45.2599C180.476 43.7981 178.959 42.7588 177.228 42.3372C175.488 41.9484 170.022 41.7873 156.938 41.7707L156.959 41.7778ZM140.954 46.9025C137.56 46.9025 133.696 47.0993 131.236 47.4714C130.288 47.616 129.83 48.1825 130.387 48.531C130.797 48.7917 131.997 48.7893 140.888 48.5144C144.785 48.3935 148.077 48.1944 148.203 48.0711C148.328 47.9479 148.203 47.699 147.821 47.4477C147.259 47.0779 144.339 46.8978 140.947 46.9025H140.954ZM115.776 47.3268C112.517 47.3268 106.679 47.8009 105.086 48.1801C100.762 49.2231 99.9112 54.0824 99.9112 54.0824V63.443C99.9112 68.5938 100.058 75.5793 100.236 78.9713C100.473 83.6575 100.523 88.8818 100.402 100.779C100.305 110.284 100.338 119.215 100.487 123.534C100.622 127.443 100.838 134.438 100.961 139.058C101.085 143.678 101.36 151.953 101.561 157.428C101.762 162.904 102.021 170.05 102.139 173.31C102.256 176.569 102.32 179.269 102.279 179.309C102.239 179.349 102.253 179.309 102.232 179.295L104.353 183.031L104.076 180.66C103.78 178.145 103.41 170.254 103.218 162.408C102.725 142.182 102.564 136.808 102.237 129.816C101.931 123.319 101.893 118.511 102.026 103.386C102.163 87.68 102.13 84.0581 101.808 79.3268C101.291 71.7772 101.191 55.7724 101.649 53.9639C102.253 51.565 102.784 50.7212 104.161 49.9745C105.32 49.3487 105.697 49.28 109.175 49.0809C111.242 48.9624 114.534 48.8723 116.49 48.8794C120.872 48.896 121.015 49.069 122.321 51.0317C122.942 51.9656 123.556 52.5748 124.193 52.8853C125.307 53.4305 125.646 53.4305 142.09 53.165C150.86 53.0228 153.434 52.9114 154.197 52.6388C155.394 52.1437 156.394 51.2671 157.042 50.1452C157.345 49.5573 157.53 49.4862 159.099 49.3535C160.048 49.2729 163.603 49.2421 167.014 49.2847C174.17 49.3796 174.106 49.3606 175.114 51.5532C175.694 52.8166 175.732 53.1437 175.792 57.1259C175.832 59.7713 175.635 64.256 175.929 63.4216L177.451 59.8661L177.28 55.8104C177.119 51.9917 176.704 50.5956 175.332 49.2563C173.959 47.917 173.559 47.8483 166.161 47.8341C161.811 47.8341 158.865 47.917 157.886 48.1019C156.464 48.3674 156.331 48.4527 155.84 49.3369C155.443 49.98 154.928 50.5428 154.323 50.9961C153.375 51.6764 153.249 51.7073 151.389 51.5887C148.366 51.4086 139.688 51.456 132.222 51.6907C124.57 51.9277 124.637 51.9419 123.76 50.2234C122.574 47.8839 121.022 47.3221 115.776 47.3292V47.3268ZM158.144 53.2646C158.049 53.2646 157.94 53.3191 157.81 53.4495C157.49 53.7719 157.236 58.5244 157.49 59.5319C157.658 60.2027 158.213 60.3236 158.438 59.7357C158.521 59.52 158.594 58.0764 158.594 56.5001C158.599 54.2578 158.478 53.2954 158.144 53.2646ZM154.382 54.5588C154.316 54.5533 154.249 54.5638 154.188 54.5896C153.915 54.6939 153.84 55.1633 153.84 56.6542C153.823 57.4778 153.872 58.3013 153.986 59.117C154.065 59.411 154.264 59.6504 154.43 59.6504C154.842 59.6504 155.013 58.8705 155.018 56.9695C155.018 55.4169 154.804 54.5991 154.382 54.5588ZM165.478 55.0827C165.355 55.0827 165.227 55.0827 165.096 55.0827C164.301 55.0978 163.508 55.1811 162.726 55.3316C162.039 55.5188 162.015 55.5686 161.946 57.069C161.842 59.3636 162.093 59.8329 163.485 59.9396C164.653 60.032 165.26 59.9893 167.111 59.6883C167.879 59.5627 168.242 59.3707 168.405 58.9961C168.493 58.8234 168.625 58.6774 168.789 58.5739C168.952 58.4704 169.141 58.4132 169.335 58.4083C170.337 58.3087 170.378 57.7991 169.415 57.3961C168.82 57.1591 168.557 56.8652 168.467 56.3674C168.289 55.4785 167.344 55.0661 165.488 55.0732L165.478 55.0827ZM121.086 55.1751C120.997 55.1745 120.909 55.1915 120.827 55.2253C120.745 55.2591 120.671 55.3089 120.608 55.3718C120.546 55.4348 120.497 55.5095 120.463 55.5918C120.43 55.674 120.414 55.762 120.415 55.8507C120.415 56.1659 120.569 56.3247 120.863 56.3247C121.377 56.3247 121.726 55.6468 121.387 55.3055C121.305 55.2276 121.198 55.1814 121.086 55.1751ZM117.028 55.3884C116.08 55.3884 115.556 55.9644 116.172 56.3532C116.75 56.7182 118.282 56.6092 118.44 56.1896C118.635 55.6847 118.123 55.3956 117.028 55.3884ZM107.873 55.7037C106.636 55.7179 105.896 55.9194 105.773 56.2916C105.721 56.448 105.927 56.6756 106.231 56.7964C106.849 57.0335 110.995 57.1212 111.822 56.8984C112.114 56.8201 112.356 56.621 112.356 56.4551C112.356 56.0687 111.768 55.936 109.274 55.744C108.753 55.7171 108.286 55.7037 107.873 55.7037ZM165.452 56.5689H167.348V58.7022H165.452V56.5689ZM163.686 56.5689C164.253 56.5689 164.288 56.6353 164.219 57.5763C164.16 58.4154 164.058 58.5979 163.615 58.6596C163.127 58.7283 163.082 58.6406 163.082 57.6521C163.082 56.6637 163.124 56.5689 163.686 56.5689ZM152.043 56.6021C151.975 56.6056 151.909 56.6208 151.846 56.6471C151.408 56.8154 151.317 58.5221 151.697 59.5176C151.825 59.8519 152.09 60.1244 152.289 60.1244C152.576 60.1244 152.647 59.8139 152.647 58.643C152.647 57.2041 152.467 56.5879 152.043 56.6021ZM148.724 58.4652C148.298 58.4652 148.032 59.0293 148.226 59.5319C148.478 60.1908 149.089 59.9396 149.089 59.1763C149.096 58.6951 148.978 58.4652 148.731 58.4652H148.724ZM136.545 61.0726C136.292 61.0934 136.045 61.1675 135.822 61.29C135.599 61.4126 135.405 61.5808 135.251 61.7837C134.037 63.2249 133.627 66.4439 134.251 69.6059C134.59 71.3292 134.76 71.7156 135.462 72.3769C136.467 73.325 136.844 73.3393 137.712 72.4717C139.736 70.4474 139.686 62.8504 137.64 61.4163C137.326 61.1854 136.943 61.0661 136.552 61.0773L136.545 61.0726ZM136.692 62.6347C136.758 62.6436 136.819 62.6726 136.868 62.7176C137.728 63.4287 138.107 67.7523 137.505 69.9662C137.382 70.447 137.192 70.9082 136.941 71.3363C136.68 71.6919 136.576 71.7061 136.202 71.4335C135.564 70.9594 135.182 67.1929 135.564 65.0975C135.863 63.4975 136.296 62.5778 136.699 62.6394L136.692 62.6347ZM149.639 65.8086C148.793 65.8086 147.435 66.6382 146.849 67.5129C145.64 69.3144 145.581 70.8907 146.686 71.7606C148.272 73.0074 150.907 70.8907 151.17 68.1647C151.268 67.155 151.201 66.8847 150.737 66.3917C150.45 66.0797 150.065 65.8755 149.646 65.8133L149.639 65.8086ZM163.989 66.7994C163.041 66.7639 161.716 67.3019 160.434 68.2548C156.856 70.8876 153.427 73.7174 150.163 76.7313C148.468 78.3241 145.422 81.0927 143.408 82.8942C141.393 84.6957 139.307 86.5991 138.785 87.1467C138.211 87.7435 137.604 88.3078 136.967 88.8367L136.097 89.5313L134.241 87.7274C131.364 84.9304 127.495 82.1736 126.438 82.1736C126.011 82.1736 125.016 82.4652 122.586 83.2996C121.356 83.7215 118.59 86.2175 118.125 87.3292C117.661 88.4409 117.732 89.5763 118.346 90.3727C119.154 91.4181 125.585 97.7991 127.443 99.3991C129.384 101.058 130.536 101.807 131.869 102.244C133.054 102.625 138.506 102.481 141.322 101.988C143.818 101.554 145.306 100.696 147.679 98.3182C152.292 93.696 162.581 79.5923 165.068 74.4984C165.985 72.6187 165.985 72.6021 165.826 70.4972C165.646 68.1007 165.241 67.0957 164.371 66.8776C164.248 66.8487 164.123 66.8312 163.997 66.8255L163.989 66.7994ZM123.613 66.8231C122.676 66.771 121.83 67.6361 121.83 68.7028C121.83 70.4616 122.835 72.5191 123.963 73.0927C124.228 73.2374 124.515 73.3382 124.812 73.3914C125.338 73.3914 126.293 72.4243 126.448 71.7321C126.85 69.8951 125.357 67.1526 123.793 66.8563C123.736 66.8438 123.678 66.8343 123.62 66.8279L123.613 66.8231ZM149.096 67.2356C149.703 67.2356 149.808 67.328 149.808 67.8139C149.798 68.2671 149.696 68.7135 149.507 69.1254C149.318 69.5373 149.046 69.9058 148.708 70.208C148.075 70.7935 147.65 70.9191 147.357 70.6347C147.063 70.3502 147.193 69.7481 147.783 68.4824C148.295 67.3778 148.445 67.2356 149.085 67.2356H149.096ZM123.259 68.1837C124.224 68.1837 125.352 70.208 125.054 71.3979C124.973 71.7156 124.817 71.9763 124.693 71.9763C124.473 71.9763 123.508 70.8456 123.494 70.5825C123.494 70.5019 123.338 69.9307 123.148 69.3096C122.823 68.2406 122.83 68.1837 123.259 68.1837ZM163.669 68.4207C164.12 68.4468 164.144 68.9375 163.722 69.9022C163.565 70.2554 162.098 72.0687 160.46 73.9319C158.822 75.795 155.79 79.4501 153.721 82.0575C151.652 84.6649 148.98 88.0261 147.795 89.5241C144.951 93.1081 140.563 98.0741 139.447 99.0056C138.774 99.5105 138.038 99.9234 137.256 100.233C136.337 100.55 135.381 100.751 134.412 100.833C131.66 101.018 130.145 99.987 123.449 93.357C120.908 90.8373 119.23 88.9956 119.23 88.723C119.23 87.9716 120.147 86.7247 121.524 85.6012C123.003 84.397 124.006 84.2098 124.501 85.0418C124.997 85.8738 130.854 90.9037 131.914 91.4157C132.594 91.7183 133.329 91.8796 134.073 91.8898C135.626 91.8898 136.761 91.1644 139.909 88.1588C141.246 86.8812 143.597 84.7336 145.124 83.3896C146.65 82.0456 149.168 79.7677 150.694 78.3336C153.211 75.9633 154.434 74.944 159.922 70.6062C161.806 69.1176 163.079 68.3804 163.658 68.416L163.669 68.4207ZM109.217 71.0329C108.964 71.0289 108.713 71.0781 108.479 71.1773C108.246 71.2765 108.037 71.4235 107.864 71.6089C107.421 72.083 107.349 72.3461 107.475 73.0311C107.79 74.7046 109.281 75.8945 112.453 76.9967C114.762 77.8003 115.52 77.8358 116.181 77.1745C117.13 76.2264 116.144 74.2258 114.143 73.024C111.858 71.6516 110.303 71.0092 109.217 71.0329ZM164.407 72.1754C164.575 72.1754 164.089 73.1923 162.93 75.2403C159.922 80.5594 150.981 92.6933 146.856 97.0477C145.064 98.944 143.882 99.7452 142.082 100.29C140.234 100.852 140.186 100.734 141.668 99.2877C142.436 98.5363 143.882 96.9173 144.88 95.6729C145.877 94.4284 147.43 92.5132 148.326 91.4062C149.222 90.2993 151.858 87.0139 154.174 84.1126C156.49 81.2113 159.417 77.6865 160.676 76.2904C161.934 74.8942 163.248 73.3938 163.598 72.9719C164.047 72.4346 164.317 72.1675 164.407 72.1707V72.1754ZM109.274 72.3579C109.684 72.3579 110.329 72.5523 111.194 72.9197C113.249 73.7944 114.352 74.579 114.847 75.5461C115.198 76.2216 115.191 76.243 114.669 76.2359C113.339 76.2145 110.037 74.6738 109.293 73.7304C108.549 72.787 108.596 72.3413 109.274 72.3579ZM126.002 83.5982C126.388 83.5864 127.026 83.8116 127.645 84.2287C129.112 85.2148 131.584 87.2391 132.501 88.2038C132.986 88.7079 133.523 89.1599 134.101 89.5526C134.526 89.8157 134.813 90.131 134.739 90.2495C134.502 90.6358 133.35 90.4865 132.461 89.9319C131.221 89.1733 125.656 84.243 125.639 83.8874C125.63 83.7001 125.774 83.6053 126.004 83.5982H126.002ZM163.238 86.0753C161.46 86.0444 160.237 86.7129 160.237 87.8222C160.237 89.0453 161.297 89.9698 163.25 90.4557C165.99 91.1384 168.541 89.5289 167.576 87.725C167.149 86.9286 166.374 86.5399 164.551 86.208C164.119 86.1277 163.68 86.0833 163.24 86.0753H163.238ZM163.428 87.405C163.76 87.397 164.093 87.4113 164.423 87.4477C165.646 87.5852 166.682 88.3793 166.229 88.832C165.888 89.1733 164.096 89.3227 163.307 89.069C162.416 88.7799 161.648 88.256 161.648 87.9289C161.648 87.6397 162.451 87.4287 163.418 87.4027L163.428 87.405ZM113.671 90.7994C112.13 90.7567 109.94 91.4394 109.267 92.2501C108.504 93.1721 109.087 94.9262 110.341 95.4667C110.938 95.7274 112.441 95.5354 113.304 95.0874C114.24 94.6133 115.411 93.376 115.582 92.6981C115.778 91.9135 115.16 91.0388 114.285 90.8634C114.083 90.8251 113.877 90.8037 113.671 90.7994ZM113.387 91.9964C113.889 91.9964 114.252 92.1031 114.252 92.3378C114.252 92.6554 112.958 93.76 112.28 93.997C111.379 94.3384 111.033 94.3147 110.604 93.8856C110.064 93.3476 110.367 92.9375 111.68 92.3591C112.221 92.1307 112.8 92.0046 113.387 91.987V91.9964ZM120.922 101.359C120.26 101.398 119.613 101.577 119.026 101.886C117.696 102.53 114.669 105.375 114.15 106.47C113.79 107.231 113.79 107.33 114.169 107.942C114.382 108.29 114.639 108.609 114.935 108.89C115.589 109.433 117.386 109.243 118.898 108.473C119.554 108.152 120.182 107.776 120.773 107.347C122.477 105.865 123.248 104.066 122.781 102.651C122.67 102.253 122.425 101.905 122.086 101.669C121.747 101.432 121.336 101.321 120.925 101.355L120.922 101.359ZM120.816 102.782C121.278 102.782 121.363 102.905 121.363 103.576C121.363 104.761 120.27 106.095 118.58 106.996C116.542 108.084 114.788 108.011 115.409 106.866C116.089 105.602 119.81 102.791 120.816 102.791V102.782ZM137.408 104.441C136.031 104.441 135.538 104.889 135.189 106.432C134.841 107.975 134.931 108.565 135.664 109.355C136.794 110.592 138.619 109.627 139.148 107.513C139.57 105.799 138.809 104.448 137.403 104.455L137.408 104.441ZM137.114 105.652C137.529 105.638 137.84 106.126 137.811 106.92C137.778 107.975 137.041 108.876 136.588 108.421C136.135 107.966 136.225 106.216 136.676 105.842C136.796 105.736 136.949 105.674 137.109 105.666L137.114 105.652ZM161.548 120.702C161.441 120.939 158.521 121.112 157.495 121.254C156.468 121.396 153.439 121.624 150.763 121.754C148.087 121.884 142.594 122.212 138.553 122.465C134.512 122.719 127.526 123.022 123.022 123.089C118.519 123.155 114.605 123.252 114.314 123.311C112.744 123.636 110.943 126.393 110.936 128.474C110.936 131.556 113.335 133.196 117.81 133.16C145.003 132.942 151.851 132.748 156.504 132.056C157.8 131.863 159.106 131.747 160.415 131.71H162.017C161.863 131.082 161.624 130.478 161.306 129.915C161.306 130.121 160.986 130.185 159.934 130.223C159.118 130.254 157.386 130.434 156.082 130.626C152.927 131.089 151.223 131.209 151.223 130.972C151.223 130.863 151.874 129.787 152.673 128.576C153.493 127.331 154.246 126.043 154.928 124.717C155.84 122.821 155.942 122.776 158.808 122.731L161.088 122.705L161.548 120.702ZM153.102 123.169C153.695 123.169 154.079 123.205 154.079 123.259C154.079 123.463 152.386 126.341 151.073 128.353C150.315 129.519 149.585 130.655 149.452 130.875C149.25 131.205 148.663 131.295 146.036 131.401L142.865 131.529L144.477 128.472C145.363 126.791 146.34 124.978 146.648 124.442L147.2 123.496L149.153 123.345C150.533 123.226 152.109 123.172 153.098 123.183L153.102 123.169ZM145.574 123.39L144.695 124.994C144.221 125.879 143.628 126.919 143.4 127.31C143.173 127.701 142.594 128.794 142.116 129.74L141.246 131.458H138.058C136.306 131.458 134.874 131.39 134.874 131.302C134.874 131.15 137.098 126.893 138.219 124.902L138.776 123.913L141.269 123.771C142.64 123.693 144.168 123.575 144.666 123.511L145.574 123.39ZM137.041 124.101L136.429 125.108C136.093 125.663 135.173 127.317 134.386 128.782L132.964 131.449H130.295C129.113 131.437 127.932 131.486 126.756 131.598C126.265 131.681 125.869 131.653 125.876 131.537C125.883 131.42 126.824 129.783 127.976 127.891L130.065 124.454L131.582 124.305C132.414 124.222 133.981 124.143 135.064 124.127L137.041 124.101ZM115.944 124.229C116.371 124.238 116.796 124.276 117.217 124.343C118.13 124.461 118.952 124.558 119.047 124.565C119.142 124.572 118.824 125.191 118.336 125.95C117.848 126.708 116.973 128.199 116.388 129.268C115.202 131.401 114.92 131.556 113.621 130.724C113.233 130.446 112.916 130.08 112.696 129.656C112.476 129.232 112.359 128.762 112.356 128.284C112.356 127.237 113.541 125.326 114.57 124.729C115.141 124.395 115.437 124.26 115.942 124.255L115.944 124.229ZM127.874 124.454C127.976 124.448 128.078 124.448 128.18 124.454C128.213 124.473 127.28 126.089 126.104 128.047L123.97 131.603L121.804 131.757C119.569 131.916 118.649 131.911 117.504 131.74L116.84 131.641L117.701 130.057C118.175 129.185 119.106 127.604 119.77 126.545L120.977 124.613L124.549 124.513C126.026 124.473 127.313 124.447 127.879 124.444L127.874 124.454ZM150.741 147.11C148.234 147.11 145.088 147.138 141.16 147.179C127.339 147.321 122.053 147.508 121.695 147.866C121.653 147.951 121.631 148.045 121.631 148.14C121.631 148.235 121.653 148.329 121.695 148.414C121.835 148.781 123.21 148.8 140.155 148.686C150.225 148.617 158.782 148.449 159.173 148.343C159.564 148.236 159.917 147.956 159.955 147.75C160.048 147.276 158.265 147.098 150.744 147.11H150.741ZM120.543 158.519C118.265 158.519 117.713 158.592 117.461 158.789C117.146 159.026 117.066 159.227 117.224 159.384C117.585 159.742 126.32 160.171 137.136 160.363C148.954 160.574 163.243 160.476 165.8 160.171C167.163 160.007 167.765 159.827 167.995 159.514C168.569 158.729 168.232 158.604 165.919 158.718C162.193 158.898 136.289 158.839 126.824 158.628C123.895 158.578 121.906 158.549 120.541 158.545L120.543 158.519ZM140.217 170.828C139.046 170.828 137.847 170.828 136.661 170.852C129.847 170.965 128.322 171.143 128.543 171.8C128.616 172.037 131.089 172.136 139.051 172.274C144.775 172.371 150.741 172.542 152.306 172.653L155.669 172.89C156.305 172.935 156.587 172.544 156.231 172.115C155.627 171.428 148.407 170.875 140.208 170.854L140.217 170.828ZM139.492 184.322C139.013 184.304 138.536 184.379 138.086 184.543C137.019 184.948 135.372 186.707 134.611 188.252C133.964 189.57 133.9 189.912 133.973 191.374C134.082 193.337 134.744 194.484 136.187 195.226C137.425 195.864 139.98 195.764 141.428 195.022C144.465 193.467 145.932 190.519 144.972 187.985C144.187 185.984 141.639 184.415 139.482 184.348L139.492 184.322ZM139.565 186.086C140.147 186.091 140.722 186.217 141.252 186.456C141.783 186.695 142.258 187.042 142.647 187.475C143.595 188.561 143.796 189.305 143.438 190.495C143.057 191.763 141.985 192.948 140.682 193.553C139.931 193.887 139.117 194.057 138.295 194.05C137.154 194.05 136.872 193.958 136.294 193.375C134.744 191.822 135.282 189.324 137.553 186.828C137.984 186.351 138.731 186.103 139.556 186.112L139.565 186.086ZM114.489 205.784H137.565C158.329 205.784 161.318 205.734 160.887 206.061C161.716 205.751 161.761 204.165 161.761 204.165L161.607 204.075C159.934 204.333 154.022 204.347 140.492 204.38C129.254 204.407 119.365 204.482 118.519 204.549C117.634 204.615 116.745 204.621 115.859 204.565C114.944 204.482 113.65 204.013 114.2 203.959L114.489 205.784Z" fill="#22BA68"/>
<path d="M18.9488 198.118C18.2069 198.092 17.7778 198.452 17.7778 199.251C17.7778 200.299 20.0107 203.669 22.9926 207.118L23.9408 208.213L23.0827 208.351C21.8359 208.555 21.3358 209.107 21.3358 210.28C21.3358 210.963 21.5491 211.601 22.0469 212.373L22.758 213.838H24.0569L23.4169 212.179C23.1088 211.437 22.7556 210.66 22.7556 210.404C22.7556 209.605 24.5168 209.775 26.4605 210.759C28.3212 211.707 28.6815 211.767 28.6815 211.16C28.6815 210.674 28.0368 210.024 26.7284 209.195C25.8347 208.626 20.7574 202.292 19.7192 200.448L19.1692 199.476L19.8543 199.832C20.8024 200.327 24.0546 202.766 25.5289 204.098C26.918 205.355 28.6294 207.54 29.6818 209.399C30.5138 210.871 31.0519 211.027 31.0519 209.801C31.0519 208.896 30.6726 208.026 29.5941 206.45C29.0679 205.679 28.902 205.146 28.8569 204.079C28.8261 203.321 28.9067 202.657 29.0371 202.596C29.7482 202.283 33.6996 209.747 34.4558 212.836L34.6169 213.843H35.6528L35.366 211.821C35.0792 209.78 34.2709 207.912 32.6448 204.973C31.3838 202.693 29.8004 200.732 29.1556 200.666C27.9704 200.543 27.2593 201.349 27.2593 202.828V203.57L25.7778 202.231C22.9192 199.644 20.3663 198.163 18.9488 198.118ZM232.469 198.279C232.372 198.279 232.268 198.279 232.156 198.279C230.867 198.353 227.24 201.669 224.868 204.945L223.407 206.959L223.334 205.897C223.291 205.312 223.144 204.712 223.007 204.535C222.618 204.06 221.765 204.179 221.208 204.772C220.023 206.035 218.88 209.496 218.726 212.293L218.667 213.715L219.97 213.831V212.904C219.97 211.591 220.719 208.567 221.393 207.215L222.104 205.767L221.964 208.403C221.805 211.378 222.035 211.906 222.803 210.332C224.225 207.419 229.945 200.818 231.836 199.903L232.666 199.502L232.74 200.334C232.834 201.401 232.377 202.795 230.49 207.185C229.376 209.778 228.741 210.946 228.148 211.499C227.698 211.916 227.333 212.364 227.333 212.492C227.333 213.03 227.857 212.952 229.497 212.165C230.445 211.707 231.407 211.333 231.63 211.333C232.031 211.333 232.306 211.98 232.313 212.933V213.822H233.498V212.29C233.498 211.326 233.382 210.982 232.889 210.487C232.396 209.991 232.126 209.901 231.467 210.012C231.021 210.086 230.654 210.112 230.654 210.072C230.654 210.031 231.18 208.887 231.822 207.54C233.996 202.963 234.702 199.905 233.823 198.869C233.432 198.412 233.159 198.277 232.486 198.284L232.469 198.279ZM184.588 208.213L184.405 209.548C184.199 211.039 183.789 211.764 183.128 212.34C182.823 212.672 182.615 213.083 182.528 213.525C182.528 213.573 182.476 213.613 182.355 213.649C183.256 213.751 184.18 213.836 184.18 213.836L184.792 212.556C185.177 211.802 185.474 211.007 185.678 210.185C185.847 209.311 185.972 208.581 186.152 208.503L184.588 208.213Z" fill="#22BA68"/>
<path d="M98.3706 192.512V200.42C98.3706 204.575 98.4796 208.548 98.6076 209.249C98.8285 210.199 99.1462 211.123 99.5558 212.008L100.25 213.845L101.281 213.895L101.772 213.229L101.362 212.25C101.206 211.871 100.724 211.065 100.442 210.354C99.9682 209.169 99.9279 208.642 99.8687 201.747L99.8047 194.043L98.3706 192.512Z" fill="#22BA68"/>
<path d="M200.889 71.488C200.889 72.4764 200.206 73.2776 199.365 73.2776C198.523 73.2776 197.841 72.4764 197.841 71.488C197.841 70.4996 198.523 69.6984 199.365 69.6984C200.206 69.6984 200.889 70.4996 200.889 71.488Z" fill="#E8A1A4"/>
<path d="M209.161 49.5265H209.133C209.002 49.6071 208.841 50.6121 208.775 51.7618C208.654 53.8951 208.227 55.1561 207.5 55.5544C207.392 55.6249 207.308 55.7253 207.256 55.8431C207.205 55.961 207.189 56.0913 207.21 56.2181C207.312 56.723 207.718 56.7372 209.199 56.2939C210.541 55.8886 211.394 56.1754 212.501 57.4009C213.556 58.5671 213.622 58.5861 214.049 58.0836C214.286 57.8039 214.286 57.5858 214.077 57.1354C213.395 55.6373 213.84 54.3313 215.289 53.6107C215.431 53.543 215.555 53.4408 215.648 53.3133C215.741 53.1858 215.801 53.0371 215.822 52.8806C215.822 52.48 215.602 52.3899 214.281 52.2572C212.129 52.0367 211.461 51.7357 210.344 50.477C209.844 49.9105 209.332 49.5004 209.159 49.517L209.161 49.5265ZM210.015 52.371L211.119 52.9304C211.728 53.2385 212.435 53.4898 212.691 53.4898C213.027 53.4898 213.089 53.5704 212.928 53.7861C212.739 54.0762 212.59 54.3903 212.485 54.72C212.323 55.2107 212.188 55.3079 211.899 55.1443C211.496 54.9836 211.069 54.8923 210.636 54.8741C209.789 54.8172 209.754 54.7793 209.884 54.1227C209.964 53.7194 210.01 53.3103 210.024 52.8996L210.015 52.371ZM42.6902 57.3487H42.6238C42.5329 57.3613 42.4492 57.4048 42.3867 57.472C42.2445 57.6166 42.0478 58.5671 41.9506 59.584C41.8954 60.3676 41.7757 61.1454 41.5927 61.9093C41.2537 62.7769 39.7888 64.6353 39.4404 64.6353C39.3363 64.6462 39.2372 64.6853 39.1536 64.7484C39.0701 64.8115 39.0054 64.8961 38.9663 64.9932C38.7411 65.581 39.3479 66.0575 40.315 66.0575C42.0667 66.0575 42.9225 67.3162 43.2804 70.4427C43.3255 70.9825 43.4151 71.5176 43.5482 72.0427C43.707 72.3176 44.2593 72.2513 44.5106 71.9242C44.641 71.7606 44.8756 70.9215 45.0345 70.0587C45.3687 68.2453 46.395 66.2993 47.4167 65.555C48.3838 64.8439 48.3079 64.32 47.1204 63.4951C45.6839 62.5019 43.8753 60.6507 43.7521 60.0557C43.6976 59.776 43.5885 59.1597 43.515 58.6833C43.3918 57.9153 43.041 57.3867 42.702 57.3559L42.6902 57.3487ZM43.2235 62.1345L43.7142 62.6086C43.9844 62.8741 44.6244 63.4311 45.1364 63.8459L46.0632 64.6021L45.4682 65.3867C45.1253 65.8392 44.8133 66.3144 44.5343 66.8089L44.1977 67.4584L43.7473 66.624C43.4398 66.1019 43.0215 65.6537 42.5219 65.3108L41.7444 64.8367L42.4863 63.4785L43.2235 62.1345ZM213.938 65.3369C213.622 65.3369 213.397 65.9745 213.264 67.2474C213.082 68.9849 212.639 69.9876 211.899 70.3289C210.835 70.8196 210.607 71.0116 210.607 71.4169C210.607 71.7843 210.844 71.891 211.999 72.0379C213.757 72.2584 214.675 72.7988 215.317 73.9982C215.515 74.4031 215.765 74.7801 216.061 75.1194C216.69 75.5935 217.128 74.9464 217.128 73.5597C217.128 72.4954 217.218 72.2987 218.076 71.4738C218.602 70.9736 219.235 70.5612 219.482 70.5612C219.956 70.5612 220.335 69.7908 220.067 69.3547C219.977 69.2101 219.619 69.1484 219.271 69.2196C217.927 69.4874 215.611 67.9656 214.713 66.221C214.409 65.6308 214.149 65.3345 213.93 65.3369H213.938ZM214.675 68.6554L215.248 69.101C215.625 69.3876 216.021 69.6474 216.434 69.8785L217.047 70.208L216.434 71.168L215.82 72.1161L215.04 71.5852C214.705 71.3492 214.352 71.1414 213.983 70.9642C213.793 70.9002 213.855 70.5327 214.191 69.7576L214.675 68.6554ZM39.7201 77.6936C39.3574 77.6604 38.7553 78.2127 37.7313 79.3363C36.1503 81.069 34.8016 81.9176 33.6187 81.9271C33.2776 81.9299 32.9386 81.9802 32.6113 82.0765C32.1065 82.2708 32.1373 83.0957 32.6493 83.2853C34.1734 83.8471 35.8422 85.9947 36.257 87.9265C36.4016 88.5973 36.6481 89.2279 36.8069 89.3274C37.2288 89.5953 37.5346 89.4341 37.8356 88.7893C38.798 86.7176 39.0872 86.2839 39.9073 85.6889C40.4445 85.3091 41.0472 85.0319 41.6851 84.8711C43.3989 84.563 43.6075 83.8424 42.1947 83.1194C40.8389 82.4296 40.4336 81.6735 40.2985 79.5781C40.2179 78.3502 40.0899 77.7268 39.7248 77.6818L39.7201 77.6936ZM38.6937 80.7467C38.7601 80.7467 38.8715 81.0406 38.9307 81.3985C39.0915 81.9439 39.3371 82.4607 39.6585 82.9298C40.2131 83.7476 40.225 83.8163 39.8196 83.9443C39.5826 84.0202 38.8928 84.608 38.2931 85.2504C37.6934 85.8927 37.2027 86.2649 37.2027 86.08C37.2027 85.8951 36.7287 85.1674 36.1598 84.4634L35.1168 83.1834L35.9109 82.8041C36.5315 82.4676 37.1099 82.0586 37.6342 81.5858C37.9575 81.2703 38.3125 80.9891 38.6937 80.7467Z" fill="#22BA68"/>
<path d="M58.8159 93.9212C58.8159 93.9212 61.959 91.8898 61.4825 93.4756C61.0061 95.0613 59.1335 99.0625 58.9747 99.3801C58.8159 99.6978 58.7519 101.412 58.529 101.54C58.3062 101.668 56.7868 102.296 56.5308 100.155C56.2748 98.0148 58.8159 93.9212 58.8159 93.9212Z" fill="#F2D0B9"/>
<path d="M194.697 82.7259C194.697 82.7259 192.005 81.8939 192.05 82.8136C192.095 83.7333 191.526 86.7555 194.844 87.4264C198.163 88.0972 197.966 85.9449 197.966 85.9449C197.966 85.9449 194.667 85.7647 194.709 82.7141L194.697 82.7259Z" fill="#F2D0B9"/>
<path d="M51.3991 81.619C51.1881 82.6998 50.9013 84.1221 50.688 85.1224C50.7744 85.1347 50.8615 85.141 50.9487 85.1413C51.3843 85.1414 51.805 84.9826 52.1319 84.6947C52.4588 84.4068 52.6695 84.0096 52.7244 83.5775C52.7794 83.1454 52.6748 82.7081 52.4304 82.3475C52.186 81.987 51.8185 81.7279 51.3967 81.619H51.3991Z" fill="#E8A1A4"/>
<path d="M245.314 213.824C245.314 216.628 222.085 219.209 184.68 220.568C147.276 221.926 101.573 221.841 65.3772 220.347C29.1816 218.854 8.19435 216.192 10.5837 213.393L127.858 213.822H245.314V213.824Z" fill="#E2FFEF"/>
<path d="M187.15 50.6501C185.901 50.6501 184.491 50.9108 183.96 51.3043C182.84 51.9861 181.911 52.9402 181.26 54.0776C181.023 54.4996 179.413 56.8036 178.707 57.6593C177.249 59.2926 176.069 61.1544 175.215 63.1704C173.293 67.7262 175.64 77.7979 174.573 81.8133L173.947 83.6527C173.603 84.6649 172.463 87.0661 171.416 88.9861C169.197 93.0536 168.04 96.2299 167.874 98.7046C167.775 100.179 167.701 100.414 167.374 100.279C166.592 99.9605 165.777 99.7307 164.944 99.5935C164.281 99.4821 164.015 99.2901 163.797 98.7615C162.932 96.6779 160.661 96.8178 159.751 99.0104C159.407 99.8447 159.357 99.8495 158.784 99.1218C158.444 98.7446 158.017 98.4572 157.539 98.285C155.572 97.6379 154.114 99.6148 155.124 101.566C155.56 102.409 157.072 103.775 157.99 104.156C158.582 104.393 158.755 104.664 158.997 105.688C159.264 106.613 159.65 107.5 160.147 108.326C160.889 109.525 160.967 109.791 160.739 110.293C160.116 111.659 160.834 113.849 162.145 114.605C162.529 114.823 162.842 115.079 162.842 115.183C162.842 115.695 161.166 119.841 161.01 120.552C160.664 122.223 160.749 123.451 160.618 124.9C160.462 126.656 160.889 128.408 161.176 129.477C161.527 130.645 162.004 131.772 162.598 132.838C163.491 134.54 166.232 137.152 168.05 138.039C171.081 139.513 174.635 139.989 177.531 139.311C178.529 139.074 181.691 137.735 183 136.993C183.073 136.951 182.722 137.747 182.22 138.759C180.605 142.007 180.323 145.342 181.227 150.201C181.76 153.045 181.679 153.711 180.442 156.537C177.868 162.423 174.646 168.066 171.411 172.364C169.372 175.071 168.441 176.137 162.166 182.955C157.708 187.79 154.678 191.855 154.223 194.285C153.986 195.603 154.46 197.428 155.553 198.76C156.518 199.929 160.099 202.823 160.46 202.823C160.719 202.922 160.954 203.074 161.152 203.269C161.282 203.372 161.401 203.49 161.505 203.62C161.638 203.819 160.884 205.831 160.054 206.142L160.012 206.17C158.13 207.315 155.954 210.539 155.954 212.551V213.499H113.723L113.891 212.61C114.247 210.87 114.447 209.101 114.489 207.324V205.784C114.489 205.784 114.574 203.428 114.394 202.761C114.045 201.458 113.446 200.453 111.881 198.445C110.113 196.16 109.985 195.909 109.971 194.842C109.959 193.128 109.378 191.744 106.749 187.176L104.363 183.028L102.241 179.295C102.07 179.16 101.511 178.228 100.57 176.51L99.8588 175.206C99.8588 175.206 98.4532 172.444 97.6615 170.617C96.9764 169.413 94.4686 163.43 93.3948 160.424C92.3755 157.566 92.1954 156.29 91.7355 148.667C91.5862 146.19 91.2994 143.042 91.0955 141.675C90.4745 137.479 90.4745 137.517 90.9912 136.14C92.2902 132.663 91.7711 130.963 88.9456 129.453C88.9101 129.434 88.5687 128.133 88.1847 126.561C87.8007 124.99 87.0588 122.228 86.5373 120.422C86.0158 118.616 84.9989 114.496 84.2807 111.277C83.5625 108.058 82.8775 105.225 82.7589 104.996C82.6404 104.766 82.3607 103.201 82.1379 101.521C81.9151 99.84 81.4861 97.4388 81.1898 96.1873C80.8935 94.9357 80.564 93.3784 80.4786 92.7265C80.0615 89.8323 78.1083 88.1114 75.2141 88.1043C74.7898 88.1043 74.4437 87.9976 74.4437 87.8673C74.3568 87.5987 74.1987 87.3587 73.9862 87.1727C73.5358 86.72 73.5358 86.6987 73.9862 85.8193C74.5266 84.7621 74.5646 84.0913 74.1213 83.4868C73.6212 82.8041 73.9293 81.1164 74.8324 79.6302C76.3945 77.0228 77.0985 73.8916 76.5889 71.7701C75.5862 67.5864 70.7601 64.8225 60.4301 62.5114C56.9124 61.7268 56.0093 61.3262 55.4025 60.2311C54.6084 58.8089 53.8404 58.8373 52.4087 60.3212C50.8775 61.9093 50.2754 63.5639 50.2754 66.1618C50.2754 68.6554 50.8846 70.7129 52.1717 72.5428C52.5291 73.0181 52.8463 73.5223 53.1198 74.0504C52.9536 74.603 52.7566 75.1459 52.5296 75.6764C50.6452 80.3864 49.332 88.7561 50.2209 90.3727C50.4792 90.8468 50.4318 90.8824 49.3106 91.0151C47.9074 91.181 45.9684 92.1766 45.1459 93.1484C42.9415 95.7677 41.7492 101.061 41.7373 108.286V111.436L40.9338 109.943C39.8766 107.982 39.6798 107.764 38.4875 107.236C37.5631 106.828 37.4943 106.735 37.6579 106.15C37.7899 105.303 37.8438 104.446 37.8191 103.59C37.793 100.639 36.9823 99.648 34.0431 98.989C33.4729 98.839 32.8799 98.7948 32.2938 98.8587C31.5826 98.9772 30.753 98.0456 30.3524 97.7067C28.7927 96.3959 27.0529 97.2871 26.7092 99.5745C26.4721 101.115 27.5459 105.666 28.7121 108.108C29.2099 109.151 29.537 110.056 29.4375 110.123C28.6292 110.658 28.4893 112.813 29.1649 114.257C29.4019 114.788 30.0064 116.127 30.4828 117.234C31.7824 120.17 33.2799 123.015 34.9652 125.748C37.6389 129.87 41.3652 131.864 44.8875 131.053C48.6446 130.185 50.9272 127.77 52.0389 123.482C52.2227 122.816 52.3488 122.136 52.4158 121.448C52.3989 121.196 52.4505 120.944 52.5652 120.718C52.6505 120.635 53.4825 121.818 54.4188 123.345C55.3551 124.871 56.6991 126.924 57.4055 127.9C58.5598 129.496 58.6949 129.797 58.6949 130.887C58.6949 131.928 58.5456 132.309 57.6046 133.732C57.1305 134.443 56.7062 135.123 56.3838 135.678C55.9809 136.367 56.1729 137.628 56.7109 138.214C57.2869 138.835 57.5501 139.273 57.3509 139.273C57.1518 139.273 56.673 139.624 56.2582 140.053C55.4262 140.909 55.0232 142.412 55.0232 144.647C55.0336 145.496 54.8315 146.335 54.4354 147.086C52.34 151.223 46.5136 167.642 45.7409 171.589C44.7927 176.472 45.1554 182.566 47.1015 194.15C47.5092 196.577 48.7038 201.204 49.3367 202.811L49.7634 203.89L48.9195 204.907C47.2413 206.926 43.8872 209.361 39.0825 212.051C38.0704 212.615 37.2455 213.165 37.2455 213.272C37.2455 213.378 36.8923 213.466 36.4632 213.466H24.0378H22.7388L16.0496 213.53L9.36279 213.594V214.779L23.7035 214.898C45.3189 215.076 233.142 215.104 240.355 214.931L246.637 214.779V213.594L240.059 213.53L233.481 213.48H232.296H219.97L218.667 213.362L216.803 213.431C215.315 213.487 214.886 213.431 214.67 213.122C214.518 212.914 213.679 212.494 212.805 212.188C209.889 211.169 206.298 208.946 205.16 207.448L204.584 206.692L205.17 205.537C205.49 204.902 205.753 204.087 205.753 203.724C205.753 203.136 205.964 202.958 207.663 202.1C209.737 201.055 212.748 199.085 213.442 198.319C213.745 197.912 213.955 197.442 214.056 196.945C214.158 196.452 214.457 195.048 214.722 193.797C215.971 187.987 215.644 183.279 213.203 171.883C212.617 169.15 211.92 165.63 211.653 164.06C210.998 160.199 210.811 152.628 211.202 145.953C211.472 141.326 211.56 140.705 212.079 139.674C212.774 138.295 212.665 137.455 211.664 136.453L210.975 135.765L211.449 134.737C212.075 133.357 212.048 133.009 211.212 131.776C210.548 130.792 210.501 130.574 210.501 128.51C210.501 126.642 210.648 125.798 211.449 123.058C212.634 118.926 213.136 116.478 213.326 113.799L213.475 111.666L217.526 111.737C223.452 111.841 226.024 111.17 228.141 108.983C229.513 107.56 229.89 104.823 229.025 102.547C227.264 97.9058 221.16 91.8803 215.135 88.851C212.681 87.6113 212.12 87.4572 208.853 87.1087C207.355 86.9499 206.096 86.7959 206.056 86.765C206.016 86.7342 206.163 86.1582 206.386 85.4827C206.701 84.5132 206.76 83.7404 206.653 81.8418C206.502 79.0613 205.864 76.6767 204.24 72.813C202.306 68.2169 202.166 67.4441 202.003 60.4658C201.844 53.5609 201.723 53.0276 200.194 52.3876C199.087 51.9253 198.635 51.9585 196.307 52.6696C193.505 53.523 192.514 53.4021 190.618 51.9799C189.817 51.3754 188.788 50.8136 188.335 50.7283C187.953 50.6627 187.566 50.6317 187.178 50.6359L187.15 50.6501ZM186.811 52.2904C187.691 52.2626 188.561 52.4783 189.326 52.9138C192.28 54.6252 192.526 54.7153 193.896 54.592C194.901 54.4716 195.895 54.2759 196.871 54.0065C200.346 53.0276 200.528 53.3452 200.536 60.2927C200.536 66.368 200.86 68.3899 202.432 72.2441C205.229 79.0874 205.734 81.664 204.997 85.3333L204.726 86.6821L203.517 86.5351C201.523 86.2512 199.553 85.8162 197.625 85.2338C196.338 84.8498 195.965 84.6246 195.669 84.0699C195.528 83.8177 195.409 83.5536 195.314 83.2806C195.314 83.2261 195.788 83.0436 196.39 82.88C198.523 82.2827 200.28 80.3319 200.91 77.8762C201.621 75.072 200.893 69.395 198.988 63.1087C198.198 60.5013 198.172 60.3212 198.537 59.7665C198.748 59.4441 198.857 59.0151 198.774 58.8184C198.653 58.5031 198.509 58.5387 197.826 59.0554C197.373 59.3951 196.834 59.6004 196.269 59.6478C195.705 59.6952 195.139 59.5827 194.636 59.3233C193.978 58.8835 193.373 58.3714 192.829 57.7967C191.094 56.019 190.933 56.211 190.594 60.5369C190.146 66.2044 189.369 68.8047 187.499 70.8764C186.536 71.9479 184.642 72.9268 183.535 72.9316C182.54 72.9316 180.928 72.3437 179.996 71.6373C179.579 71.3197 179.171 71.1253 179.091 71.2083C178.802 71.4951 178.949 72.1564 179.392 72.557C179.762 72.8913 179.797 73.0761 179.593 73.6142C179.088 74.9535 179.885 76.8664 181.445 78.0587C182.63 78.9523 183.789 78.9618 184.941 78.0824L185.794 77.4329L186.384 78.4427C187.394 80.1683 188.174 82.0433 188.418 83.3327C188.866 85.7031 187.901 87.3766 183.632 91.6741C179.84 95.4856 178.802 97.0193 177.609 100.518C176.754 103.031 176.711 103.301 176.72 106.119C176.72 108.812 177.076 111.334 177.88 114.477C177.972 114.835 177.955 115.124 177.844 115.117C177.261 115.089 171.122 109.788 171.122 109.312C171.122 108.798 169.564 107.307 169.026 107.307C168.728 107.307 168.396 107.051 168.194 106.667C167.891 106.086 167.905 105.956 168.365 105.337C168.825 104.718 168.863 104.389 168.813 101.912C168.73 97.8394 169.545 95.2107 172.605 89.6545C175.791 83.8827 176.398 81.0074 175.858 73.9959C175.222 65.6142 175.881 63.1301 180.098 58.0006C180.83 57.1299 181.484 56.1963 182.051 55.2107C182.917 53.4258 184.858 52.3401 186.792 52.2999L186.811 52.2904ZM192.064 58.9487L192.903 59.6859C193.96 60.6151 195.051 61.075 196.198 61.075H197.096L197.995 64.9268C199.365 70.8006 199.621 72.365 199.637 74.9393C199.654 77.6201 199.4 78.4735 197.997 80.3034C196.942 81.6853 196.297 81.9319 193.742 81.9319C192.218 81.9319 191.763 82.0077 191.763 82.259C191.763 82.733 192.237 83.053 193.232 83.2403C194 83.3825 194.147 83.5247 194.418 84.3876C194.678 85.1864 194.934 85.4637 195.79 85.8809C196.371 86.163 196.904 86.355 196.975 86.3123C197.336 86.0895 197.656 86.7556 198.16 88.7727C198.646 90.7354 198.677 91.1194 198.416 92.0913C198.263 92.6832 197.993 93.2385 197.622 93.7244C196.16 95.2818 191.431 92.9849 189.155 89.6142C188.53 88.6874 188.47 88.4717 188.719 88.0213C189.231 87.0921 189.84 85.1484 189.848 84.4113C189.862 83.1881 189.184 80.9529 188.188 78.9594C187.328 77.2338 186.072 75.5224 185.659 75.5224C185.569 75.5224 185.154 75.8969 184.735 76.352C183.775 77.4013 182.853 77.4605 181.966 76.5298C181.333 75.8518 180.859 74.8444 180.859 74.1215C180.859 73.709 180.923 73.7043 181.985 74.0338C183.407 74.4699 184.851 74.2993 186.489 73.5028C188.029 72.7514 189.222 71.4027 190.251 69.2527C191.4 66.8468 191.796 65.1188 191.941 61.8501L192.064 58.9487ZM54.2102 60.544C54.2554 60.5411 54.3007 60.5492 54.342 60.5678C54.3833 60.5864 54.4194 60.6149 54.4472 60.6507C54.6109 60.8832 54.7247 61.1471 54.7815 61.4258C54.9308 62.2293 56.6659 62.9404 61.4185 64.1422C63.9406 64.7799 66.7258 65.5787 67.6123 65.9153C72.8271 67.9064 75.1098 70.1819 75.1216 73.4033C75.1216 75.4702 73.7373 80.0403 73.0997 80.0403C72.8911 80.0403 72.7584 80.4219 72.7109 81.1662L72.6398 82.2922L71.3717 82.4486C69.9732 82.6193 67.8778 83.8708 66.9912 85.0726C66.696 85.4627 66.3454 85.8077 65.9506 86.0966C65.4552 86.4213 65.3865 86.419 65.2561 86.0776C64.9195 85.2077 65.3675 82.5055 66.1355 80.7514C66.6926 79.4833 67.0837 78.4593 67.1548 77.6699C67.2129 77.2612 67.1548 76.8444 66.9871 76.4671C66.8194 76.0898 66.549 75.7674 66.2066 75.5366L65.1068 74.6193C62.1675 72.1399 59.9702 68.0818 59.9702 66.1594C59.9702 65.3724 59.316 65.3985 59.0221 66.1997C58.7969 66.7876 58.932 67.5769 59.6289 69.7837C59.7782 70.2578 59.7166 70.317 59.105 70.317C57.8392 70.317 55.0754 68.1244 54.6511 66.7781C54.3975 65.9769 53.8167 66.1784 53.8167 67.0649C53.8167 67.8708 54.1818 68.5582 55.1892 69.651L55.7746 70.2886L54.9142 71.2936C54.4401 71.8459 54.0538 72.3864 54.0538 72.493C54.0538 73.1259 53.537 72.4409 52.7287 70.7319C51.8351 68.8356 51.8019 68.691 51.8019 66.2874C51.8019 64.0498 51.8659 63.68 52.4301 62.6133C53.0819 61.3641 53.7859 60.5701 54.2102 60.544ZM195.852 68.909C195.697 68.9004 195.544 68.9365 195.41 69.0131C195.276 69.0896 195.167 69.2033 195.096 69.3404C194.795 69.907 195.148 71.2036 195.724 71.6397C195.885 71.7726 196.073 71.8696 196.275 71.9244C196.478 71.9791 196.689 71.9902 196.896 71.957C197.102 71.9239 197.299 71.8471 197.474 71.7319C197.649 71.6168 197.797 71.4657 197.909 71.2889C198.575 70.355 198.53 70.1606 197.589 69.8501C197.188 69.7263 196.817 69.5177 196.504 69.2385C196.424 69.1407 196.325 69.0607 196.213 69.0039C196.101 68.9471 195.977 68.9148 195.852 68.909ZM56.8721 71.1372C57.1586 71.1818 57.4371 71.2672 57.6994 71.3908C58.3327 71.6427 59.0165 71.7417 59.6952 71.68C60.5178 71.5686 60.6434 71.6279 61.0274 72.2607C61.6484 73.3132 63.8315 75.4133 65.0381 76.1197L66.1 76.7431L65.7539 77.9046C65.5643 78.5422 65.076 79.8436 64.6683 80.7941C64.0828 82.1665 63.9264 82.8681 63.9192 84.1837C63.9003 86.8954 64.82 87.9763 66.42 87.1206C66.8656 86.8836 66.8941 86.9073 66.7637 87.4169C66.6807 87.725 66.4864 88.6021 66.3323 89.3867C66.1166 90.477 65.8582 90.9938 65.204 91.6551C64.472 92.457 63.7941 93.3067 63.1749 94.1985C62.2386 95.5378 61.8428 95.9123 61.2455 96.0261C59.8659 96.2844 57.6899 99.1644 57.8843 100.494C57.9293 100.824 57.8084 101.03 57.5406 101.084C56.8105 101.229 56.9835 98.8516 57.8535 96.7799C58.4508 95.3576 58.8016 94.8836 59.7498 94.1724C60.3921 93.6984 60.9184 93.203 60.9184 93.0821C60.9184 92.563 60.3779 92.6483 58.7518 93.4258C56.8105 94.3573 56.2511 94.4284 55.1583 93.8714C52.5889 92.5677 51.0884 90.3016 51.1003 87.7393C51.1003 84.8782 53.089 77.5917 54.7649 74.2281C55.9501 71.8767 56.2653 71.1799 56.7821 71.1467H56.8721V71.1372ZM53.9258 79.9076L53.9613 80.6993C54.003 81.2034 54.2048 81.681 54.5373 82.0622C55.2911 82.8658 56.2724 82.8136 57.1613 81.9224C57.5548 81.5313 57.8321 81.0761 57.7776 80.915C57.6188 80.4243 56.5118 80.0166 55.1821 79.9668L53.9258 79.9076ZM71.9595 83.6006C72.0752 83.5971 72.191 83.6035 72.3056 83.6196C73.1376 83.7357 73.2538 85.0418 72.4929 85.5751C71.8505 86.0231 70.0988 86.0492 69.1175 85.6367L68.4301 85.3428L69.1886 84.7076C69.9778 84.0648 70.9447 83.6786 71.9595 83.6006ZM68.2973 86.701L69.1032 87.0376C69.671 87.2464 70.2692 87.3601 70.8739 87.3742C71.4198 87.3773 71.9567 87.5131 72.4384 87.7701L73.0404 88.1636L71.1109 88.7301C70.1339 89.0052 69.1778 89.3497 68.2499 89.7612C67.1382 90.3301 67.1074 90.221 67.8043 88.1612L68.2973 86.701ZM199.156 86.9926C199.183 86.9944 199.209 87.0008 199.234 87.0116C199.41 87.0779 199.997 87.2486 200.538 87.3979C201.699 87.7108 204.093 89.8868 204.093 90.6311C204.07 90.8003 204.002 90.96 203.896 91.0935C203.789 91.227 203.649 91.3293 203.489 91.3896C202.778 91.7167 201.614 91.7167 200.723 91.3896C200.227 91.2095 200.045 90.9535 199.938 90.2827C199.795 89.559 199.602 88.8462 199.36 88.1493C199.066 87.3055 199.007 86.995 199.161 86.9926H199.156ZM204.283 88.083L207.682 88.2252C209.607 88.3058 211.527 88.6116 213.452 89.5621C219.802 92.7668 224.896 97.5407 227.266 102.516C228.179 104.431 228.214 105.361 227.399 107.003C226.325 109.205 223.469 110.139 217.654 110.194C213.985 110.229 212.309 109.999 210.192 109.167L209.541 108.9L210.252 107.996C211.911 105.896 212.435 103.647 211.736 101.577L211.285 100.245L215.611 100.274C220.003 100.305 220.892 100.148 220.096 99.4868C219.707 99.1644 216.007 98.7899 213.049 98.7757H211.233L210.361 97.5905C209.394 96.2726 208.701 95.6942 208.057 95.6942C207.412 95.6942 207.554 96.1422 208.72 97.5076L209.806 98.7781L208.602 98.816C207.941 98.8373 207.258 98.8658 207.085 98.8753C206.912 98.8847 206.296 98.3135 205.715 97.6C203.435 94.803 201.152 94.4071 198.661 96.3816C197.81 97.0548 197.667 97.3298 197.312 98.925C196.563 102.286 197.312 104.14 199.36 103.948C200.125 103.877 200.308 103.948 200.637 104.517C200.848 104.877 201.515 105.465 202.117 105.811C202.949 106.352 203.72 106.983 204.416 107.691C205.219 108.516 205.937 109.013 206.57 109.182C207.281 109.4 207.973 109.676 208.637 110.009C209.386 110.374 210.167 110.67 210.97 110.893L212.186 111.204L212.032 112.754C211.704 115.996 211.054 119.198 210.09 122.311C209.142 125.497 209.029 126.089 208.988 128.514C208.948 130.939 208.988 131.257 209.481 131.916C210.192 132.895 210.152 133.798 209.308 134.943C208.429 136.14 206.433 137.218 204.16 137.726C202.318 138.138 196.421 138.219 194.287 137.861C191.602 137.41 187.977 136.012 187.264 135.151C186.828 134.628 187.413 132.767 188.56 131.027C189.022 130.331 189.381 129.573 189.627 128.775C190.642 124.388 188.274 110.841 185.647 105.991C184.82 104.465 184.208 104.661 184.742 106.28C184.91 106.792 184.872 106.785 183.557 106.093C182.808 105.697 181.973 105.408 181.705 105.446C180.698 105.591 181.257 106.238 183.296 107.288L185.375 108.359L185.849 109.9C186.723 112.768 187.508 116.641 188.01 120.612L188.515 124.565L187.695 125.708C186.427 127.471 185.185 128.23 183.367 128.346C180.828 128.507 177.991 127.305 174.059 124.404C170.126 121.503 164.399 115.776 164.911 115.264C165.165 115.147 165.443 115.095 165.722 115.115C167.488 115.115 170.275 113.484 171.041 112.002L171.389 111.332L172.274 112.315C173.262 113.415 176.469 115.871 177.766 116.523C178.633 116.956 182.059 117.722 183.137 117.722C183.585 117.722 183.72 117.615 183.661 117.307C183.602 116.999 183.137 116.776 182.175 116.52C180.615 116.108 180.707 115.878 182.525 115.662C183.459 115.553 183.711 115.425 183.654 115.141C183.597 114.856 183.275 114.759 182.16 114.759C181.44 114.753 180.721 114.808 180.01 114.925L179.28 115.089L178.726 112.32C178.081 109.103 177.842 104.479 178.233 102.839C178.796 100.261 179.966 97.8547 181.646 95.8199C182.46 94.7943 183.348 93.8301 184.303 92.9351L185.251 92.1505L185.164 93.0987C184.927 95.469 185.813 96.8723 187.534 96.8723C188.451 96.8723 188.662 96.749 189.904 95.4643L191.272 94.0587L192.806 94.8551C196.203 96.6282 198.732 95.9739 199.602 93.1081L199.869 92.2098L200.732 92.6601C201.363 92.9896 201.934 93.0868 202.847 93.0157C205.288 92.8308 206.317 90.752 204.892 88.8842L204.283 88.083ZM75.0742 89.683C75.9584 89.683 76.6979 89.8062 77.2075 90.0788C78.5539 90.7899 78.5705 90.8373 79.9903 97.5882C81.3035 103.822 81.6259 110.888 80.9385 118.17C80.2274 125.532 78.7483 129.052 75.7355 130.453C74.2469 131.148 72.289 131.164 70.2244 130.515C68.4158 129.941 67.3041 128.856 64.9741 125.44C63.5661 123.366 60.2096 117.879 60.2096 117.646C60.2096 117.601 60.8757 117.321 61.6911 117.028C63.9951 116.191 65.9364 115.157 66.8609 114.268L67.7071 113.458L68.577 114.709C69.8523 116.539 73.0262 120.1 73.7752 120.54C74.2635 120.83 74.4864 120.856 74.6949 120.649C74.9035 120.443 74.7305 120.095 73.9838 119.227L73.0072 118.08L74.2493 117.961C75.1264 117.879 75.4938 117.741 75.4938 117.487C75.4938 117.065 74.676 116.821 73.1566 116.791C72.0662 116.769 72.0117 116.736 72.1444 116.205C72.7038 113.979 72.4644 106.66 71.7154 103.09C71.3551 101.367 71.2816 101.243 70.7364 101.452C70.4425 101.566 70.3761 101.791 70.4781 102.369C70.7506 103.96 71.1418 111.282 71.0683 113.406L70.9901 115.615L69.3213 113.541C68.4016 112.391 67.4606 111.149 67.2283 110.779C66.9121 110.341 66.4874 109.992 65.9957 109.767C65.0784 109.385 65.0926 109.471 65.1755 105.287C65.2324 102.495 64.82 100.466 63.7391 98.1997L62.9806 96.6163L63.6182 95.9502C64.1233 95.3542 64.5569 94.7011 64.9101 94.0041C65.46 92.9327 65.7966 92.6009 66.9746 91.9656C69.6342 90.5434 72.8176 89.683 75.0742 89.6782V89.683ZM187.733 89.7659C187.859 89.7659 188.169 90.1665 188.425 90.6548C188.758 91.2533 189.161 91.8103 189.625 92.3141C190.492 93.2219 190.39 93.5799 188.947 94.7247C188.437 95.1277 187.745 95.4572 187.411 95.4572C186.901 95.4572 186.761 95.3031 186.546 94.509C186.126 92.9351 186.925 89.7541 187.733 89.7541V89.7659ZM50.7044 92.2714C51.1477 92.2714 51.3421 92.4468 51.8517 92.9825C53.1483 94.317 54.7341 95.2747 55.8505 95.4003C56.4218 95.4643 56.8864 95.597 56.8864 95.6942C56.7514 96.1515 56.5794 96.5971 56.372 97.0264C55.7912 98.3348 55.6324 100.933 56.1065 101.407C56.3435 101.632 56.1705 101.881 55.3693 102.592C54.0111 103.777 53.7101 104.564 53.8594 106.56C53.9054 107.646 54.2127 108.705 54.7554 109.646C55.4665 110.933 57.1258 112.747 57.6235 112.747C57.7207 112.747 57.7421 113.316 57.6709 114.008C57.6 114.685 57.6868 115.37 57.9246 116.008C58.1616 116.795 59.2591 118.516 59.7758 119.588C60.9397 122.001 63.7438 126.462 65.3604 128.476C66.8632 130.344 68.2309 131.297 70.3643 131.956C75.6052 133.575 79.8197 130.771 81.1803 124.788C81.8506 121.534 82.3412 118.245 82.6499 114.937C82.7258 113.799 82.8869 112.706 82.9865 112.512C83.1406 112.235 83.1832 112.275 83.1904 112.685C83.1904 113.159 83.7095 115.207 86.4022 125.516C87.2935 128.929 87.2437 129.349 85.7101 131.205C82.9012 134.59 76.7998 138.408 72.3412 139.575C69.9708 140.193 65.588 140.371 63.6419 139.925C61.0226 139.323 57.3604 137.555 57.3604 136.889C57.3604 136.768 57.9056 135.777 58.5741 134.687C59.2425 133.596 59.8517 132.378 59.9347 131.98L60.0864 131.269L61.6271 132.34C62.3895 132.865 63.1216 133.432 63.8197 134.04C64.2938 134.492 64.5474 134.594 64.7323 134.409C64.9172 134.225 64.9172 134.018 64.7323 133.675C64.3506 132.964 62.1059 131.067 61.0914 130.593C60.3945 130.273 59.8446 129.645 58.5693 127.694C53.8452 120.481 49.6899 111.991 48.801 107.733C48.4952 106.276 48.2037 105.849 47.8529 106.363C47.3788 107.074 48.2582 110.91 49.6615 114.285C49.7918 114.598 49.3533 114.387 48.2535 113.6C47.0398 112.737 46.5942 112.526 46.3809 112.737C46.1675 112.948 46.1746 113.128 46.3524 113.42C46.7672 114.098 48.8295 115.371 49.5121 115.371C50.0715 115.371 50.2351 115.565 50.8561 116.971L51.5672 118.571L51.1666 120.82C50.5124 124.501 49.6212 126.447 47.8718 128.028C46.1225 129.609 43.9394 130.268 42.1616 129.728C38.4804 128.612 36.8994 126.815 32.8721 119.161L31.3148 116.198H33.1376C34.1733 116.205 35.2044 116.06 36.1978 115.767C37.5038 115.319 39.4783 113.73 40.0425 112.673C40.372 112.062 40.3933 112.092 41.3675 114.6C42.6191 117.829 44.6458 122.129 45.0226 122.361C45.8878 122.894 45.6887 121.858 44.2001 118.075L42.6262 114.072L42.8846 109.025C43.2686 101.577 43.8185 98.3182 45.1341 95.7511C46.1818 93.7031 47.4878 92.7787 49.8938 92.3923C50.1605 92.3406 50.4306 92.3082 50.7021 92.2951L50.7044 92.2714ZM201.46 96.5049C201.749 96.5018 202.037 96.5442 202.313 96.6305C203.337 96.9671 205.352 99.1479 206.554 101.215C207.061 102.092 207.739 103.348 207.611 103.732C207.538 103.958 207.408 104.162 207.234 104.324C207.061 104.486 206.848 104.601 206.618 104.659C204.525 105.306 203.081 105.133 201.837 104.107C201.273 103.633 201.195 103.469 201.453 103.298C201.671 103.153 202.045 103.238 202.576 103.552C203.33 103.998 203.382 104 203.525 103.602C203.643 103.291 203.382 102.907 202.517 102.125C200.837 100.601 200.317 100.293 199.988 100.622C199.787 100.824 199.846 101.065 200.225 101.57C200.834 102.393 200.725 102.547 199.538 102.547C198.751 102.547 198.613 102.464 198.471 101.902C198.267 101.087 198.765 98.1096 199.225 97.3985C199.585 96.8652 200.562 96.5049 201.46 96.5049ZM61.4161 97.472C61.6224 97.4578 61.8096 97.6616 62.2671 98.1831C63.3551 99.4252 63.8268 101.627 63.8979 105.797C63.9311 107.646 64.0235 109.369 64.1041 109.627C64.225 110.007 64.0188 110.229 62.9995 110.812C62.1898 111.256 61.3398 111.621 60.4609 111.903C59.9697 112.059 59.4694 112.185 58.9628 112.28C58.5006 112.28 56.1184 109.611 55.6656 108.577C55.3535 107.795 55.1486 106.975 55.0564 106.138C54.9355 104.811 54.9426 104.794 55.9358 103.898C56.865 103.059 59.9655 101.376 60.5865 101.376C60.8008 101.339 60.9939 101.224 61.1293 101.054C61.537 100.561 60.8472 100.105 59.9678 100.274C59.5601 100.357 59.2567 100.316 59.2567 100.181C59.2567 99.7689 60.4016 98.1144 60.9658 97.7114C61.0922 97.5933 61.2475 97.5107 61.4161 97.472ZM28.9871 98.3704C29.3486 98.3946 29.6905 98.5437 29.9542 98.7923L30.6061 99.3019L30.1178 99.8234C29.6437 100.335 29.4517 101.141 29.8167 101.141C30.2049 101.024 30.5792 100.865 30.9332 100.667C31.4166 100.414 31.9432 100.253 32.4858 100.193C33.5026 100.193 35.3302 100.836 35.9394 101.404C36.4324 101.879 36.5035 102.151 36.5035 103.668C36.5035 106.039 35.8588 109.175 35.2283 109.883C34.8647 110.255 34.4355 110.556 33.9625 110.772C32.1468 111.545 31.5921 111.204 30.2173 108.489C27.8232 103.737 27.361 98.4201 28.9871 98.3704ZM161.882 98.5339C162.01 98.5339 162.332 98.771 162.593 99.053L163.067 99.5722L162.356 99.8708C161.868 100.077 161.69 100.283 161.789 100.537C161.889 100.791 162.292 100.904 163.416 100.904C165.058 100.904 166.815 101.414 167.272 102.023C167.675 102.561 167.421 104.156 166.99 105.202C166.672 105.958 166.672 106.185 166.99 107.252C167.514 109.018 167.687 109.338 166.616 109.769C165.371 110.265 163.864 110.244 162.823 109.734C162.159 109.404 161.787 108.907 160.965 107.259C160.398 106.129 159.879 104.775 159.81 104.256C159.604 102.725 161.107 98.5363 161.861 98.5339H161.882ZM156.866 99.5556C157.274 99.5769 157.845 99.8827 158.485 100.463C158.905 100.845 158.959 101.07 158.81 101.867C158.761 102.237 158.66 102.598 158.511 102.94C158.44 103.009 157.895 102.597 157.295 102.023C156.527 101.286 156.207 100.791 156.207 100.338C156.207 99.7926 156.444 99.5319 156.866 99.5556ZM207.431 100.186H208.244C208.808 100.186 209.296 100.399 209.832 100.878C210.574 101.542 210.607 101.644 210.607 103.315C210.607 104.877 210.527 105.18 209.837 106.259C209.413 106.918 208.794 107.584 208.462 107.733C208.255 107.841 208.036 107.925 207.81 107.985C207.784 107.973 207.443 107.883 207.052 107.79C206.17 107.577 205.44 107.193 205.07 106.747C204.833 106.463 204.937 106.377 205.67 106.24C206.855 106.017 208.277 105.268 208.583 104.706C208.934 104.052 208.602 103.021 207.798 101.077L207.431 100.186ZM37.3308 108.032C37.6016 108.076 37.8653 108.156 38.1154 108.269C38.3599 108.348 38.5799 108.488 38.7543 108.677C38.9287 108.865 39.0515 109.095 39.1109 109.345C39.4973 110.514 39.2271 111.566 38.241 112.718C37.2099 113.922 36.1077 114.517 34.2493 114.852C31.2816 115.401 30.6155 115.157 30.1178 113.332C29.8262 112.265 29.7717 110.843 30.0206 110.843C30.1106 110.843 30.4946 111.137 30.8668 111.495C31.4594 112.066 31.7344 112.147 33.0333 112.147C34.2825 112.147 34.676 112.04 35.4985 111.469C36.5272 110.758 37.5915 108.968 37.3545 108.35C37.2834 108.148 37.2384 108.044 37.3308 108.032ZM168.886 108.127L169.415 108.985C170.477 110.701 169.818 112.235 167.606 113.185C166.222 113.778 164.136 114.015 163.318 113.681C162.166 113.207 161.659 112.495 161.659 111.417V110.402L162.984 111.012C164.532 111.723 165.525 111.675 167.229 110.824C168.495 110.194 168.576 110.094 168.758 108.964L168.886 108.127ZM65.3652 110.85C65.4813 110.85 65.8179 111.109 66.1142 111.424C67.1785 112.557 66.1877 113.557 62.3548 115.252C61.0416 115.831 59.8043 116.302 59.6075 116.302C59.1335 116.302 58.7424 115.24 58.8324 114.214C58.8988 113.458 58.9652 113.396 59.8232 113.32C61.3677 113.156 62.8404 112.584 64.0899 111.661C64.6754 111.218 65.2514 110.85 65.3652 110.85ZM163.84 116.43L164.565 117.378C165.909 119.13 171.003 124.015 173.274 125.713C174.488 126.626 175.755 127.469 177.066 128.237C180.959 130.354 184.858 130.318 187.335 128.137C188.423 127.189 188.428 127.177 188.572 127.746C188.679 128.175 188.406 128.813 187.475 130.309C186.794 131.404 186.095 132.53 185.925 132.812C185.055 134.248 179.999 137.188 177.256 137.839C175.749 138.2 172.963 138.15 171.378 137.73C168.223 136.898 165.798 135.123 163.992 132.333C162.546 130.095 162.015 128.081 162.015 124.831C162.015 122.318 162.086 121.882 162.927 119.265L163.84 116.43ZM88.0022 130.524C88.4763 130.524 89.8535 131.669 90.1118 132.283C90.4058 132.994 90.3773 133.158 89.3154 136.865C89.0926 137.65 89.0902 138.171 89.3154 139.209C89.4671 139.944 89.5382 140.632 89.4671 140.75C89.1779 141.224 87.8078 140.923 86.8336 140.179C85.5678 139.205 85.0013 138.468 84.2262 136.782L83.6052 135.426L84.9065 134.22C85.6902 133.476 86.3962 132.655 87.0138 131.769C87.4594 131.086 87.905 130.527 88.0046 130.524H88.0022ZM185.979 135.976C186.045 135.976 186.074 136.066 186.074 136.213C186.074 136.609 190.284 138.524 192.355 139.072C193.778 139.447 195.245 139.605 198.194 139.695C203.698 139.866 206.357 139.33 209.067 137.505L210.252 136.713L210.726 137.32C211.325 138.086 211.325 138.702 210.726 139.823C210.015 141.141 209.673 145.631 209.68 153.508C209.68 161.176 209.759 161.804 211.679 170.574C213.691 179.774 213.843 180.745 213.98 185.394C214.089 189.082 214.035 190.135 213.58 192.979C212.959 196.871 212.745 197.461 211.581 198.483C209.761 200.081 200 204.331 200.422 203.34C201.37 201.126 201.889 197.032 202.183 189.528C202.546 180.26 203.043 172.961 203.764 166.338C204.129 162.996 204.098 162.404 203.589 162.913C202.64 163.861 201.218 177.609 200.784 190.002C200.562 196.3 200.197 199.832 199.561 201.797C199.143 202.829 198.668 203.838 198.139 204.819C197.134 206.715 196.79 207.166 195.88 207.699C195.039 208.192 194.444 208.341 193.114 208.391C190.898 208.474 189.013 208.199 187.984 207.637C187.273 207.253 186.65 207.187 183.718 207.187C181.584 207.187 180.285 207.097 180.295 206.95C180.558 206.22 180.866 205.507 181.219 204.817C183.09 200.91 185.851 191.194 185.851 188.513C185.851 186.961 185.161 188.444 184.22 192.017C182.753 197.594 180.532 203.703 179.162 205.928C178.522 206.969 178.382 207.068 177.557 207.068C175.979 207.068 171.304 206.165 168.877 205.393C165.013 204.162 160.154 201.235 157.532 198.796C156.544 197.876 155.515 196.087 155.515 194.98C155.515 193.072 158.714 188.687 165.11 181.824C172.764 173.611 175.777 169.351 179.89 161.003C180.838 159.095 181.852 157.153 182.168 156.689C183.256 155.084 183.384 153.69 182.774 150.052C181.795 144.18 182.277 141.044 184.713 137.463C185.377 136.481 185.778 136 185.965 135.972L185.979 135.976ZM82.4105 136.299L82.8087 137.42C83.3065 138.823 84.8117 140.75 86.0443 141.568C87.1038 142.279 88.9385 142.58 89.4576 142.149C89.8155 141.852 89.8653 142.225 90.1972 147.463C90.5575 153.218 91.2188 157.8 92.1243 160.856C92.8852 163.428 95.8932 170.695 97.4718 173.774C99.7284 178.181 104.543 186.401 106.702 189.537C107.732 191.075 108.404 192.825 108.667 194.657C108.852 195.999 108.61 196.357 107.079 196.994C105.408 197.694 103.464 197.314 102.779 196.153C101.459 193.915 94.4828 185.785 90.9723 182.713C88.6541 180.691 88.5664 180.58 84.9231 174.725C82.8893 171.461 79.9453 167.175 78.6464 164.89C74.2943 157.231 71.2437 152.311 70.8929 152.377C70.2647 152.498 70.3761 152.984 71.5518 155.247L72.737 157.511L68.7406 161.69C64.2724 166.353 62.1035 169.012 61.1554 170.626C60.8069 171.219 58.2469 175.924 58.0739 177.975C57.8558 180.606 58.0028 184.104 57.8677 190.929C57.7184 198.45 57.588 201.097 57.3201 202.05C57.1258 202.738 56.8911 203.378 56.7963 203.473C56.6066 203.665 52.3826 203.771 51.4392 203.608C50.9035 203.515 50.7447 203.231 50.0881 201.202C49.1898 198.424 48.7015 195.75 47.3053 185.941C46.2861 178.78 46.2481 178.321 46.4875 175.986C46.9284 171.653 47.7841 167.927 49.1732 164.333C49.8843 162.477 51.0695 159.308 51.8019 157.293C52.5343 155.278 53.8381 151.841 54.7032 149.675L56.2795 145.719L57.2846 145.335C58.8703 144.73 60.3447 143.467 60.9444 142.201C61.2407 141.575 61.4967 141.042 61.5157 141.016C61.9254 141.079 62.3285 141.18 62.7198 141.317C64.4786 141.848 67.681 142.002 69.9566 141.67C73.7065 141.122 77.2028 139.74 80.7465 137.403L82.4105 136.299ZM59.1809 140.113C59.4194 140.103 59.6551 140.167 59.8564 140.295L60.4609 140.613L59.7829 141.62C59.2678 142.316 58.6519 142.931 57.9554 143.445C57.3225 143.896 56.7015 144.263 56.5758 144.263C56.2653 144.263 56.5758 141.656 56.9551 141.22C57.3382 140.884 57.7749 140.615 58.2469 140.423C58.5402 140.274 58.8555 140.172 59.1809 140.122V140.113ZM73.4268 158.67L75.2686 161.958C78.6345 167.964 80.9812 171.833 84.1575 176.621C86.9213 180.783 87.6561 181.708 90.1877 184.206C91.7758 185.771 94.2647 188.357 95.7201 189.954L98.3702 192.868L99.7924 194.408L101.032 195.831C101.715 196.613 102.582 197.568 102.962 197.964L103.649 198.675L103.746 204.015C103.798 206.952 103.782 209.676 103.711 210.067C103.64 210.458 103.17 211.252 102.67 211.833L101.76 212.888L101.269 213.554L100.238 213.504H60.6813L60.321 212.805C60.105 212.35 59.9825 211.857 59.9607 211.354C59.9607 210.588 58.5788 206.184 57.9815 205.044C57.6899 204.492 57.7041 204.333 58.0834 203.686C59.0007 202.133 59.2472 199.27 59.2686 189.938C59.2686 185.097 59.0315 179.745 59.4511 178.174C60.513 174.206 62.4283 170.648 63.0801 169.828C64.7133 167.782 69.2431 162.804 71.5305 160.55L73.4268 158.67ZM109.25 197.355C109.435 197.355 109.665 197.663 110.21 198.5C110.761 199.329 111.379 200.112 112.057 200.841C112.988 201.79 113.024 201.894 113.187 203.857C113.351 205.819 113.114 208.891 112.543 212.006L112.272 213.487H107.809C105.356 213.487 103.348 213.421 103.348 213.34C103.54 212.993 103.78 212.674 104.059 212.392C104.45 211.947 104.77 211.413 104.77 211.207C104.77 210.897 104.955 210.861 105.846 210.994C106.439 211.084 107.477 211.3 108.157 211.468C108.838 211.636 109.483 211.705 109.594 211.596C110.149 211.053 107.394 209.7 105.735 209.7H105.126L105.085 205.196L105.045 200.692L105.552 201.048C106.311 201.579 108.131 201.505 108.885 200.913C109.682 200.287 109.741 199.614 108.978 199.865C108.482 199.999 107.976 200.095 107.465 200.152C106.621 200.247 106.375 200.152 105.688 199.535L104.889 198.81L105.837 198.798C106.885 198.784 108.504 198.139 109.004 197.535C109.094 197.426 109.167 197.359 109.253 197.359L109.25 197.355ZM204.21 203.795C204.485 203.812 203.681 205.293 203.1 205.784C202.87 205.989 202.602 206.147 202.311 206.247C202.019 206.348 201.711 206.389 201.403 206.369C200.415 206.369 199.585 206.052 199.585 205.687C199.585 205.58 200.571 205.132 201.778 204.691C202.984 204.25 204.046 203.854 204.148 203.812C204.169 203.801 204.193 203.795 204.217 203.795H204.21ZM162.607 204.243C162.963 204.243 164.978 205.267 164.978 205.447C164.978 205.535 164.643 205.672 164.236 205.755C163.288 205.945 162.726 205.943 162.527 205.755C162.29 205.518 162.342 204.255 162.6 204.255L162.607 204.243ZM56.5332 204.8L57.1969 206.592C57.9412 208.597 59.0197 212.43 59.0197 213.068C59.0197 213.447 58.6712 213.483 54.9901 213.483H50.9628L50.4887 212.57C49.9483 211.511 48.7181 210.368 47.3906 209.69L46.4567 209.216L48.3767 207.32L50.2943 205.423L50.7684 206.014C51.4392 206.867 52.4277 207.308 53.684 207.308C54.9403 207.308 55.6964 206.983 55.6964 206.469C55.6964 206.206 55.3741 206.123 54.3595 206.123C53.4114 206.123 52.788 205.976 52.2262 205.627C51.9417 205.47 51.6747 205.284 51.4298 205.07C52.0029 205.044 52.5772 205.059 53.1483 205.115C53.9991 205.181 54.8546 205.143 55.6964 205.004L56.5332 204.8ZM166.518 206.118C166.867 206.118 167.376 206.289 168.415 206.639C172.207 207.912 174.651 208.299 179.792 208.436L184.557 208.562L186.121 208.858C186.173 208.838 186.231 208.838 186.283 208.858C186.401 208.896 186.52 208.927 186.64 208.96H186.667C188.556 209.498 190.509 209.778 192.474 209.794C194.768 209.813 195.051 209.764 196.117 209.161C196.752 208.804 197.302 208.51 197.338 208.51C197.284 208.894 197.19 209.271 197.056 209.636C196.827 210.444 196.747 211.287 196.819 212.124L196.933 213.487H168.32L167.689 212.663C167.322 212.188 166.478 211.565 165.667 211.181L164.267 210.524L164.411 209.576C164.498 209.029 164.658 208.496 164.885 207.991C165.046 207.695 165.157 207.374 165.212 207.042C165.212 206.869 165.487 206.568 165.826 206.355C166.028 206.206 166.272 206.127 166.523 206.13L166.518 206.118ZM161.541 206.955C161.62 206.948 161.701 206.956 161.778 206.978C162.18 207.095 162.589 207.185 163.003 207.249L163.755 207.367L163.418 208.315C163.239 208.804 163.126 209.314 163.081 209.832C163.081 210.34 162.977 210.394 162.029 210.394C160.754 210.394 159.763 210.74 159.763 211.186C159.763 211.423 160.277 211.546 161.763 211.639C163.771 211.764 165.53 212.361 166.172 213.134C166.409 213.431 165.838 213.476 161.775 213.476H157.096L157.243 212.736C157.703 210.456 160.277 207.073 161.543 206.962L161.541 206.955ZM203.634 207.476C203.835 207.476 203.925 207.642 204.082 208.021C204.328 208.516 204.655 208.966 205.051 209.351C205.817 210.086 205.923 210.401 205.4 210.401C204.925 210.401 203.138 212.136 203.138 212.601C203.138 213.267 203.631 213.312 204.283 212.705C204.822 212.263 205.42 211.898 206.059 211.62L207.201 211.122L209.318 212.186C210.482 212.772 211.435 213.3 211.435 213.371C211.435 213.442 208.498 213.485 204.909 213.485C199.201 213.485 198.364 213.44 198.239 213.115C197.71 211.738 199.225 207.36 200.175 207.524C201.801 207.799 202.498 207.82 203.112 207.604C203.277 207.533 203.454 207.491 203.634 207.481V207.476ZM45.1862 210.385C45.3198 210.381 45.4532 210.397 45.5821 210.432C46.6392 210.716 48.4265 211.977 48.9006 212.767L49.3296 213.478H44.5746C41.9672 213.478 39.8221 213.426 39.8221 213.364C39.8221 213.303 40.2748 213.02 40.8295 212.741C41.3841 212.461 42.529 211.793 43.3776 211.238C44.3258 210.636 44.7856 210.401 45.1862 210.385Z" fill="#483613"/>
<path d="M61.2834 84.3852C61.2802 84.8574 61.0906 85.3092 60.7559 85.6422C60.4211 85.9752 59.9683 86.1623 59.4961 86.163C59.142 86.1634 58.7958 86.0589 58.5012 85.8625C58.2066 85.6661 57.9768 85.3868 57.841 85.0598C57.7052 84.7329 57.6694 84.373 57.7382 84.0256C57.807 83.6783 57.9772 83.3592 58.2274 83.1087C58.4776 82.8582 58.7965 82.6875 59.1437 82.6183C59.4909 82.549 59.8509 82.5843 60.178 82.7197C60.5052 82.8551 60.7848 83.0845 60.9816 83.3788C61.1783 83.6732 61.2834 84.0193 61.2834 84.3733V84.3852Z" fill="#E8A1A4"/>
<path d="M194.309 72.9173C194.308 73.3916 194.119 73.8462 193.784 74.1813C193.448 74.5164 192.993 74.7046 192.519 74.7046C192.165 74.7046 191.819 74.5996 191.525 74.4028C191.23 74.2061 191.001 73.9264 190.865 73.5993C190.73 73.2721 190.695 72.9122 190.764 72.565C190.833 72.2177 191.004 71.8989 191.255 71.6487C191.505 71.3985 191.824 71.2282 192.171 71.1594C192.519 71.0907 192.879 71.1264 193.206 71.2622C193.533 71.3981 193.812 71.6278 194.008 71.9224C194.205 72.217 194.309 72.5633 194.309 72.9173Z" fill="#E8A1A4"/>
</svg>
