<svg width="19" height="20" viewBox="0 0 19 20" fill="none" xmlns="http://www.w3.org/2000/svg">
<path fill-rule="evenodd" clip-rule="evenodd" d="M1 8.875C1 4.8019 4.3019 1.5 8.375 1.5C12.4481 1.5 15.75 4.8019 15.75 8.875C15.75 12.9481 12.4481 16.25 8.375 16.25C4.3019 16.25 1 12.9481 1 8.875ZM8.375 0.5C3.74962 0.5 0 4.24962 0 8.875C0 13.5004 3.74962 17.25 8.375 17.25C10.5078 17.25 12.4543 16.4528 13.933 15.1401L18.1465 19.3536C18.3417 19.5488 18.6583 19.5488 18.8536 19.3536C19.0488 19.1583 19.0488 18.8417 18.8536 18.6465L14.6401 14.433C15.9528 12.9543 16.75 11.0078 16.75 8.875C16.75 4.24962 13.0004 0.5 8.375 0.5Z" fill="#333333" fill-opacity="0.6"/>
</svg>
