<svg width="129" height="128" viewBox="0 0 129 128" fill="none" xmlns="http://www.w3.org/2000/svg">
<g opacity="0.7">
<path d="M64.5 112C91.0097 112 112.5 90.5097 112.5 64C112.5 37.4903 91.0097 16 64.5 16C37.9903 16 16.5 37.4903 16.5 64C16.5 90.5097 37.9903 112 64.5 112Z" stroke="#22BA68" stroke-width="2" stroke-miterlimit="10"/>
<path d="M64.5 80C75.5457 80 84.5 71.0457 84.5 60C84.5 48.9543 75.5457 40 64.5 40C53.4543 40 44.5 48.9543 44.5 60C44.5 71.0457 53.4543 80 64.5 80Z" fill="#22BA68" stroke="#22BA68" stroke-width="2" stroke-miterlimit="10"/>
<path d="M32.3994 99.687C35.4125 93.7631 40.006 88.7884 45.6716 85.3138C51.3371 81.8391 57.8536 80 64.4998 80C71.146 80 77.6625 81.8391 83.3281 85.3137C88.9937 88.7883 93.5872 93.763 96.6003 99.6869" fill="#22BA68"/>
<path d="M32.3994 99.687C35.4125 93.7631 40.006 88.7884 45.6716 85.3138C51.3371 81.8391 57.8536 80 64.4998 80C71.146 80 77.6625 81.8391 83.3281 85.3137C88.9937 88.7883 93.5872 93.763 96.6003 99.6869L32.3994 99.687Z" stroke="#22BA68" stroke-width="2" stroke-linecap="round" stroke-linejoin="round"/>
<path d="M32.5 100C35.5036 103.611 40.0828 106.643 45.7306 108.761C51.3784 110.879 57.8746 112 64.5 112C71.1253 112 77.6215 110.879 83.2693 108.761C88.9172 106.643 93.4964 103.611 96.5 100" fill="#22BA68"/>
<path d="M32.5 100C35.5036 103.611 40.0828 106.643 45.7306 108.761C51.3784 110.879 57.8746 112 64.5 112C71.1253 112 77.6215 110.879 83.2693 108.761C88.9172 106.643 93.4964 103.611 96.5 100L32.5 100Z" stroke="#22BA68" stroke-width="2" stroke-linecap="round" stroke-linejoin="round"/>
</g>
</svg>
